<svg width="405" height="405" fill="none" xmlns="http://www.w3.org/2000/svg"><path d="M150.53 24.996s-34.646-21.658-46.021-12.45c-11.375 9.207-16.232 13.526-14.064 24.9 2.167 11.376 1.582 15.694 7.578 22.15 5.996 6.454 18.399 14.08 18.399 14.08s-62.791 78.547-71.999 107.229c-9.207 28.682-41.132 101.25-31.94 128.857 9.19 27.606 22.148 47.635 41.132 57.918 18.984 10.283 32.48 18.984 44.392 18.984 11.913 0 32.479-9.207 38.981-10.283 6.502-1.076 16.77 1.076 16.77 1.076s8.131 15.156 14.618 14.08c6.486-1.076 30.327-6.502 30.327-6.502l24.901 9.745s44.93-3.781 59.01-3.781c14.08 0 53.584-18.415 64.42-33.571 10.837-15.156 28.145-75.795 27.069-93.656-1.076-17.861-18.937-107.151-23.81-124-4.872-16.848-19.49-50.356-19.49-50.356s36.276-18.984 29.774-36.276c-6.503-17.291-27.069-30.311-40.595-29.773-13.527.537-30.866 8.67-31.942 13.02-1.075 4.35-8.669 11.897-8.669 11.897s-24.363-17.403-62.253-16.232c-37.89 1.17-38.443 8.654-47.635 8.654s-18.953-15.71-18.953-15.71z" fill="#F7CE7C"/><path d="M180.036 173.865l-22.734 39.804 2.436 18.668s-8.132 17.861-8.132 25.17c0 7.309 12.182 27.622 34.109 31.641 21.927 4.018 33.223-2.437 41.418-12.989a61.138 61.138 0 0010.552-21.12l-13.036-36.497 12.988-1.582-23.493-49.581-2.436 14.555-15.425.806-3.275-20.234-12.972 11.359z" fill="#665950"/><path d="M321.928 77.52h-.586c.064 0 .317.158.396.237.057-.084.12-.163.19-.238zm-.19.3a1.065 1.065 0 00-.094.237c.158-.126.142-.19.094-.237zm.997 1.804c-.269.41-.57.237-.823.079a1.253 1.253 0 00-1.25-.095 1.202 1.202 0 001.092 1.17c.538.016.838-.427.981-1.154zm-.222-.997c-.111.22-.238.431-.379.633.307-.261.555-.585.728-.95a1.684 1.684 0 01-.349.317zm.222-.664l-.142.237c.218-.149.389-.358.49-.601a.945.945 0 01-.348.364zm1.139 2.199l-.285.237c-.332-.997 0-1.377-.158-2.041-.222 0 0 2.136-.57 1.756 0 .49.253.506.475.57.221.063.427.174.459.933.522.395-.064-.933.079-1.456zm3.686-11.027v.112c0-.128-.08-.24 0-.112zm1.282-1.978l.237.238-.237-.349v.111zm-1.045 5.094a2.77 2.77 0 00-.253-.284c.111.174.221.3.253.284zm14.555-2.468c0 .095.126.222.237.38l-.206-.364-.031-.016zm-12.688-5.82a.205.205 0 00.019-.088.2.2 0 00-.019-.087s-.048.08 0 .175zm-2.469 8.81l-.11-.126v.126h.11zm.033-7.008s.144.128.159.112c.016-.016-.127-.128-.159-.112zm-.032 14.776c.095.095.079 0 0-.158s-.158-.221 0 .158zm1.123-.633c.079.158.095.174 0 0zm-1.107.475c.348.49 1.266 2.152.348.269l-.142-.237c.269.395 0-.364 0-.443l-.269-.443s-.095 0-.221-.127c-.301-.3.142.554.284.981zm.523-10.914c-.192-.336-.144-.128 0 0zm.22 1.722c-.031-.11 0 0 0 0zm-2.42.697v.08c-.048-.192-.048-.16 0-.08zm2.563-.697s.033.101 0 0zm26.752-1.787c0 .19-.285-.253-.412-.348.697 1.186.19-.111.776.98 0 0 0-.205-.127-.38l-.807-1.028c.222.475.317.333.57.776zm-10.489 2.326v-.096c.184.326.413.624.68.886-.443-.806-1.281-1.882-1.724-2.8 0 .095 0 0-.111 0 .434.64.82 1.312 1.155 2.01zm-1.234-2.01l-.19-.253-.111-.095c.09.124.191.241.301.348zm9.968.222l-.112-.08c.16.208.176.192.112.08zm-15.031 8.384l.159.38a.96.96 0 00-.159-.38zm4.59-7.022l-.175-.144v.08l.175.064zm-3.593-12.674c.791 1.25 0-.127.506.554l-.379-.649c-.19-.221-.111 0-.127.095zm16.089 11.105l-.079-.11.079.11zm-14.412-12.639l.144.16-.144-.16zm1.646 12.339l-.301.095.269.253c-.364-.632.475.428.032-.348z" fill="#7B6255"/><path d="M337.559 58.535l-.522-.743c.806 1.756-.966-.364.316 2.025-2.025-2.468 1.345 2.5-.459.3l.253.364c-1.186.142-3.006-.664-3.037 1.155l-.332-.538c-1.915 0-2.532 1.851-4.13 2.247.174.57.965 1.724 1.219 2.404 0 0-.143.111-.538-.57-.143-.41-.538-.98-.665-1.265-.11.174-.775-.49-.411.411l.617.791c.174.396 0 .206-.142.19-.238-.459-.871-1.36-.95-1.582.997 2.326-.775-.79-.506.206a38.403 38.403 0 012.199 4.983l-.395-.411c.142 0-.791-1.345-.57-1.36-.459-.444-.127.427-.427.22.279.407.512.842.696 1.298-.221-.206-.775-1.139-.918-1.17l-.253-.633c-.458-.649 0 .284 0 .443-.474-.76-.696-.823-1.17-1.693.49 1.123.095.554.348 1.313.374.487.688 1.019.933 1.582v-.395c-.522-.38 0-.175-.775-1.488.459.538 1.107 2.263 1.171 1.946.174.791-.222.238.189 1.456 0-.332.475.87.776 1.234-.143.158-.317-.443-.855-1.25 0 .095-.538-.649 0 .38-.379-.301-.553-.997-.933-1.488-.475-.949 1.06.87-.649-2.009 0-.079-.49-1.234-.348-1.234-.316-.332-1.012-1.202-.743-.474l.933 1.582c0 .095.554 1.218.411 1.107-.237-.49-.696-1.155-.696-.965.115.132.216.275.301.427 0 .206.554 1.33.569 1.74.436.465.848.95 1.234 1.456.617 1.17 0 .222 0 .395a2.144 2.144 0 00-.221-.41l.237.6c-.459-.395-.933-1.677-1.392-2.151-.649-.902.174.617-.221.11l.189.285h-.095v.08c0 .22-.142.19.333 1.06-.238-.38 0 .157.095.442.095.285.601 1.456-.254.127a2.368 2.368 0 01-.791-.965l-.379-.237-.601-1.124c.211.79.519 1.55.917 2.263-.49-.602-.395 0-.237.506l.316.411c-.158 0 .19.601.111.665-.079.063.111.158 0 0h-.111c0-.127 0-.127 0 0l-.237-.364c-.759-1.123.221.775-.127.427v-.143c-.237-.268-1.218-1.803-.696-.822-.079-.11 0 .095.111.348l-.126-.142.126.142c.158.348.348.76.222.522l-.285-.11c-.111-.143-.079 0 0 .19l-.285-.444c0 .095-.174-.174-.237-.316-1.092-1.503.142 1.012-.855-.27.277.544.584 1.073.918 1.583.24.547.451 1.107.633 1.677a24.175 24.175 0 01-2.326-3.386c-.253 0 .586.934.791 1.582.333.38.624.793.87 1.234.475.823.443 1.155.269.95l-.617-1.219a33.211 33.211 0 001.582 3.544 19.561 19.561 0 01-1.582-2.579v.38l-.553-1.012c0 .284.474 1.139.142.854-.364-.902-.649-.728-1.139-1.946-.237-.269.696 1.487 0 .3.475.997.332.46.522.728.791 1.377.206.76.316 1.155a6.284 6.284 0 00-.759-1.297c.285.553.443 1.012 0 .38.475.901 0 .253-.111.221.408.476.744 1.009.997 1.582.142.395.19.601 0 .538l.301.38c.617 1.376-.681-.87-.586-.38-.237-.57-.205-.585-.506-1.281.158.458.395 1.186.522 1.66l-.823-1.25c.333.665-.158 0 .317.918-.459-.538-.459-1.155-.807-1.819-.348-.664.664 1.582-.237.285l-.396-.87c-.095 0 0 .506-.174.095.158.3.127.174.158.142a28.816 28.816 0 011.408 3.259l.143.095c0 .427.284 1.867-.095 1.202a13.208 13.208 0 01-.427-1.946c-.095-.11.522 2.278.189 2.136.234.494.342 1.037.317 1.582.253.11.87.348.506-.474l-.126-.175a8.286 8.286 0 01-.143-1.028c.206 0 .427.855.617 1.218.617.111-.759-1.961-.443-2.04l.206.348a6.503 6.503 0 00-.68-1.804c.727 1.155 0-.585.395.095 1.44 2.642-.364 0 .316 1.471.36.609.662 1.25.902 1.915l-.332-1.298c.206.348.997 1.582.538.633 0-.364-.665-1.424-.364-1.123.301.3.332.68.427.854.095.174-.253-.633-.332-.902.221.19.554 1.108.775 1.36-.443-1.075.285.16.348 0a28.25 28.25 0 00-1.582-3.464l-.348-1.123c.491.744.997 2.167 1.74 3.401h-.205c1.044 1.851-.301-1.408.933.617.142 0 0-.205.649.617l-.934-1.582c.361.506.688 1.035.981 1.582 0-.142 0-.126.158-.079.093.19.173.385.238.586.569.901.395.538.158 0-.237-.538-.111-.412 0-.427l.285.648a3.158 3.158 0 00-.253-.664v-.174c0-.174-.744-1.234-1.06-1.582.569.553.522.094 1.455 1.376.253.475.506 1.123.57 1.17.063.048-.159-.695-.554-1.423v-.095c.163.315.36.612.585.886.061.113.141.215.238.3-.697-1.328-.174-.759-.459-1.376-.111-.11-.158 0-.19 0-.411-.917-.902-1.962-.459-1.281.443.68.902 1.297.902 1.756 1.06 1.582-.585-1.234-.111-.712l.459.6c.506.966.111.57.332.903v-.143c.332.744-.174.412.253 1.582l.601.364c-.237-1.344.981-.316.143-2.594 0-.095-.158-.285-.348-.649l.142.237-.332-.759c.406.557.85 1.086 1.329 1.582a8.84 8.84 0 01-.823-1.266c-.522-.965-.728-1.376-.427-1.075.187.42.421.818.696 1.186a3.318 3.318 0 01-.474-.918c.329.333.616.705.854 1.108 0 .206-.079 0-.158-.11.262.365.495.751.696 1.154v-.253c.379.522.459.918.696 1.266-.079-.57-.87-2.184-.965-2.737l.807 1.44c.395.379-.649-1.804-.586-1.994.238.443 0 .3.158.538.919.187 1.758.65 2.405 1.329l-.775-1.582.696.965c1.013.727.775-.475.918-1.17 0-.175.712 1.027 1.028 1.423.395 0-.57-1.772-.491-2.278a8.258 8.258 0 001.108 1.85c-.237-.458-.633-1.17-.396-.933l.238.49c.474.65.158 0 .474.175.222-.19-.19-1.408-.996-3.164.3 0 .965 1.582 1.202 1.977-.49-.474 0 .333.332.886-.174-.49-.237-.807.459.253.079-.126.158-.11-.174-.917.174.411-.237-.158-.475-.68.317.316.301-.238 1.108 1.139.379-.586 1.155-.68 1.693-1.092-.333-.76-.238-.221-.491-.744-.427-.996.396.396 0-.395l.411.775c.238 0-.427-1.471-.696-2.246.491.854.57.6.744 1.186 0-.19 2.42 3.512 2.009 2.705l-2.262-3.448c-.206-.349 0-.206-.127-.428.341.485.717.945 1.123 1.377.586.87.349.76.269.775.902 1.487.807.807 1.582 2.23 0-.332-.49-.759-.743-1.344l.316.237-.395-.443c-.174-.506-.839-1.582-.19-.917l-.759-1.582c.743 1.155.237.142.474.364l.427.775c0-.095.238 0 .554.474.585 1.045-.237-.19.348.791l.317.27a11.065 11.065 0 00-.997-1.583c-.665-1.281-1.25-2.341-.949-2.389.822 1.044.506 1.06 1.265 2.152.554.316-1.582-3.164-1.297-3.164.475.348-.19-.68 0-.886.427.807.649.743 1.155 1.44l.427.854c-.095-.285.142 0 .49.554-.68-1.029-.363-1.124-.553-1.709l-.586-.854c0-.364-.3-1.013 0-.855a12.902 12.902 0 00-1.044-2.183 31.33 31.33 0 011.772 2.674c-.332-.427-.237-.11-.49-.348.284.902 1.313 2.847.838 2.563 1.266 2.183 0-.348.554.348l.111.19c.188.652.476 1.27.854 1.835 0-.3-1.266-2.183-.522-1.377-.269-.664.902.95 1.06 1.06-.427-.854-1.582-2.563-1.123-2.341l.68 1.234c.237-.11-1.029-1.804-.791-1.883-.158-.095-.696-1.202-.839-1.155-.348-.68-.284-.886 0-.617-.095-.19-.269-.41-.522-.806-.648-.76.332.917-.522-.206l.744 1.329a9.255 9.255 0 01-1.345-1.978s.095.27-.079 0c-1.25-1.93.585.602-.443-1.06v.19c-.839-1.234-.538-1.218-.38-1.186a8.607 8.607 0 011.329 1.582l.095.49c.554.68-.079-.554 0-.57.062.095.131.185.206.27l-.174-.254c.111.102.207.22.285.349.11 0-.143-.633.126-.396l-.538-.791.285.459a2.592 2.592 0 01-.854-1.06c-.206-.665.838.87 1.329 1.582.775 1.265-.159.095 0 .57.838 1.186.237 0 .933.727.807 1.392-.206.095.569 1.36.285.143-.316-.822 0-.569.396.633.301.775.823 1.582l.348.332c-.174.222 1.123 1.582 1.171 2.089.443.49-.601-1.171 0-.396a13.875 13.875 0 01-1.44-2.167l.396.316c.474.617.807 1.582 1.234 2.01l-.158-.539c-.269-.41-.459-.57-.791-1.139.363.38-.886-1.582-1.187-2.278.095 0 .206 0 .538.475-.601-1.297-.364-1.392-.934-2.626.361.7.819 1.344 1.361 1.914.36.821.817 1.597 1.361 2.31a11.25 11.25 0 00-1.045-1.915c.475.428-.474-.933.19-.158.404.55.779 1.12 1.124 1.709.174 0-.966-1.582-.617-1.345.08.162.175.315.284.459.253.206 0-.443-.443-1.076 1.171 1.582.127-.348 1.171 1.25-.095-.554-.617-.839-.933-1.424-.317-.585.142-.285.348 0 .205.285.221.538 0 .317l.775 1.075c.775.617-1.503-2.594-.633-1.803a13.6 13.6 0 00.981 1.677c-.158-.3.237-.111-.427-.87.198.084.38.202.538.348a13.216 13.216 0 00-.76-1.582 6.21 6.21 0 011.203 1.186c-.285-.965.886.222.585-.807.348 0-1.092-1.376-.839-1.487.886 1.345.744.807 1.314 1.472.569.664-.206-1.298.664-.586.161.211.289.446.38.696.474.285.443 0 .664-.142l.111.174c1.028.886.38-.585.443-1.108.095.19.427.697.538.886.364.19.728.222 0-1.06 1.076 1.187-.174-.474.933.633a.656.656 0 01.158.3c.412.365.396.175.617.254-.348-1.013-1.503-2.769-.854-2.452 1.282 1.787.142.57 1.139 2.009-.158-.364-.38-.76 0-.395.459.743.317.458.744 1.139.395.427-1.092-2.041-.965-1.883-.253-.348-.412-.522-.427-.427-.712-1.155.205-.285 0-.823 0 0-.459-.253-1.013-1.139.459.253-.712-1.582-1.107-2.326.691.9 1.32 1.846 1.882 2.832a14.45 14.45 0 011.424 1.93c.348.159-.316-.98-.38-1.36l.253.364c.08-.285-.838-1.978-.174-1.377l-.363-.348a3.315 3.315 0 00-.428-.949c.412.585.918 1.028 1.219 1.582-1.282-1.946-.412-1.44-1.582-3.29.44.524.842 1.079 1.202 1.66-.237-.079-.538-.427 0 .38 0-.095.506.332.807.776-.76-1.25-.855-1.867-1.661-3.07a11.31 11.31 0 011.471 1.788c-.142-.823-2.342-2.895-1.993-3.164.838.838.791 1.392 1.234 1.582v.19c1.993 2.389-1.203-1.867-.966-1.899.431.68.907 1.33 1.424 1.946-.095-.459-1.503-2.53-1.028-2.199l.395.586c0-.174.412 0 .443-.222.206.27.159.238.19.317.57.38-.443-.744.412 0l-.443-.68c-.427-.412-1.06-.982-.586-.127-.474-.855-1.424-1.582-2.23-2.8l.332.474a9.15 9.15 0 00-3.085-2.357c.838 1.582-.728-.332-.237.79 1.139 1.583.189.349.253.792a5.397 5.397 0 00-1.092-1.392c.162.247.295.513.396.79-.443-.505-1.582-1.581-.886-.49-.475-.443-.348-.538-.57-.886-.633-.79.38.712 0 .19l-.174-.269c-.126.19-.522-.158-.838-.237 1.123 1.582.253.712.585 1.329-.332-.522-.522-.522-.775-.775l.743 1.234c.617 1.06-.632-.617-.363 0l.221.253c.253.538-.649-.253-1.345-1.044 1.392 3.67-2.452-.855-2.705.57.285.505.601.774 1.044 1.581 0 .237 0 .19-.079.27.364.379 0-.159.285.3l-.19-.538.269.395c0-.174-.237-.522-.127-.474.222.459 1.013 1.582.602 1.265a1.198 1.198 0 01-.175-.348c-.142 0 .238.538 0 .27-.237-.27 0 .142-.348-.365l-.68-.458c.854 1.487-.221.253-.348.142-.696-1.076 0-.427-.712-1.582l-.617-.712.57.854-.285-.142-.095-.174c.206.348.411.68.19.411a2.143 2.143 0 01-.285-.395l.237.522c-.553-.902-.253-.206-.933-1.218-.633-.317.57 1.582-.633.395.364.443 1.013 1.582.807 1.582a3.726 3.726 0 01-.617-.854l.253.601c-1.202-1.582-.633-.395-1.186-.807l-.285-.459c.285.57.49 1.045.285.95l-.586-.902c-.553-.554 1.171 1.946.633 1.471.649.95 1.076 1.392 1.709 2.294-.696-.949-.949-.996-.443-.332.111.49-.111 0-.285-.174l.301.633a9.022 9.022 0 01-1.203-1.82c.601 1.108 0 .443-.205.348l-.238-.458-.253-.08c.411.807.317.95 0 .633l-.759-1.328c-.522-.617.237.458.364.696.284.712-.317-.143-.855-.807.459 1.344-1.993-1.93-.901.047zm-11.66 13.97l.127.19c.126.253.221.474-.127-.19zm1.424-.301c.142.601-.174 0-.38-.411.348.269.174-.19.554.174-.174-.254-.38-.617-.506-.823.287.278.522.605.696.965.743 1.36-.823-.649-.317.095h-.047zm.886 8.147l-.143-.316.143.316zm0-1.582c.109.188.23.367.364.538-.079-.395-.253-.68-.238-.57l-.126.032zm2.404.839c.349.538.333.316.317.158-.016-.158-.079-.221-.19-.19l-.127.032zm8.891-6.028c.147.429.372.826.665 1.171-.253-.49.316.285-.095-.443-.142-.396-.411-.744-.443-.76l-.127.032zm1.409-7.056c.332.522.68 1.124.965 1.503.126.174.237.317.3.427.063.111.222.19.143 0-1.029-1.771-1.14-2.009-1.282-2.009l-.126.08z" fill="#7B6255"/><path d="M342.384 68.423a2.124 2.124 0 00-.38-.427c.103.162.231.306.38.427zm-19.191 7.515c0 .126 0-.254.19 1.107a5.066 5.066 0 010-.76l-.19-.347zm2.073 5.822c.161.318.375.607.632.854l-.158-.602-.474-.253zm3.796 1.47l-.395-.395c.142.49.759 1.25.395.396zm-5.805-9.175l.253.648c.332.444.38.333 0-.332.142.412-.174-.348-.253-.316zm6.186 9.097c-.554-1.108.395.395-.127-.633.127.316-.458-.459.127.633zm-5.68-10.22c-.601-1.013-.174 0-.396-.254.063-.047.76.981.396.254zm4.746 6.739c.427.775.332.76.174.617a7.819 7.819 0 01-.332-.76c.105.311.19.628.253.95a8.756 8.756 0 011.218 1.74 16.136 16.136 0 00-1.313-2.547zm-4.619-6.898c-.222-.269-.665-.965-.712-.854.316.538.759 1.297.791 1.123l.459.918c.443.538-.697-1.187-.538-1.187zm6.17 8.765l-.269-.396c.285.776 0 .49.522 1.662a2.184 2.184 0 00-.253-1.266zm-4.905-7.372l-.68-1.266c-.19-.11.237.427.364.743-.127-.174-.222-.253-.111 0 0-.253.553.997.427.523zm-.426-1.551l-.175-.617-.854-1.313c.111.506.427.775 1.029 1.93zm.601.744l.158.237-.839-1.962c.317.839.254.728.681 1.725zm6.897 6.834c-.285-.538-.775-1.139-.38-.57.396.57.76 1.06.38.57zm-6.106-9.745c.285.38 0-.49-.111-.902.064.317-.316.19.111.902zm-.223-1.06v.16a.333.333 0 000-.16zm1.757-4.208c-.158-.143 0 .237.253.822a5.722 5.722 0 00-.427-1.139c.079 0-.206-.332.174.317zm.886-.143c.158.364 0 .222.316.728.206.206-.079-.38-.316-.728zm14.286 12.293c.253.237.158 0-.332-.76-.08.064.253.49.332.76zm-.333-.981l.237.38.412.553-.649-.933zm1.187.807c.072.11.135.227.19.348a.766.766 0 00-.19-.348z" fill="#7B6255"/><path d="M343.696 77.33l.253.411a1.004 1.004 0 010-.19s-.11-.032-.253-.221zm.222-.143l-.822-1.091c.269.632.49.522 1.17 1.819l-.348-.728zm.142-.537c.332.332-.68-1.583.222-.238-.19-.886-1.488-2.246-1.582-2.943-.712-.522 1.582 2.706.806 2.12.696.76.38.712.554 1.06zm-1.486-2.294c.411.696.569.68.316.205-.079-.016-.743-.933-.316-.206zm1.614 1.36l.411.475-.269-.443-.142-.032zm.458.094l.427.84c-.19-.333-.016-.349-.427-.84zm1.06.713c.237.221-.87-1.582-.76-1.155h.079c.273.356.502.744.681 1.155zm-.823-3.481s0 .27.285.633l-.111-.459-.174-.174zm-2.927-4.413c-.759-1.076-.079.173-.395-.127.237.142.316.3.395.127zm4.034 5.885c.269.474 0 .221 0 .174.364.617.348.395 0-.174zm-.015-.522c.332.41.38.617.617.901.237.285.475.3.127-.332-.348-.633-1.187-1.709-1.503-2.294.095.49 1.345 2.579.253 1.06l1.123 2.01c.317.237-.775-1.409-.617-1.345zm-2.674-3.465l.49.601a3.416 3.416 0 01-.522-.996c-.933-1.393.032.284.032.395zm2.959 2.073l-.048-.444-.095-.031.143.474zm.395.38l.269.395-.348-.823.079.427zm.506.347l-.063-.047.126.427-.063-.38zm.538.048l-.427-.57c0 .174-.459-.427.079.364-.142-.285.016-.253.348.206zm-8.796-15.725c.223.371.466.73.728 1.075l-.617-1.028s.048.174-.111-.048zm1.234 1.486l-.649-1.218c-.253 0 .333.823.333 1.092.284.316-.19-.538 0-.27l.316.396zm3.006-.743c.28.354.514.742.696 1.155-.19-.538 0-.443 0-.649-.332-.443-.791-1.313-.696-1.076l.143.538-.317-.506c-.411-.49.57.854.174.538zm11.691 3.164c.223.33.466.648.728.949a5.271 5.271 0 00-.728-.95zM103.212 19.665c-.759-.918-.379 0-.522.443l.522-.443zm-.522.443l-.364.316a.382.382 0 00.364-.316zm-2.531 3.622c-.459-1.281 1.155-1.866.222-3.037a1.69 1.69 0 00-.87 2.364c.148.28.373.514.648.673zm1.376-1.091l-.633-.412.728 1.25-.095-.838zm.886-.269h-.301c0 .506.095 1.012.158 1.503.048-.49.079-.997.143-1.503zm-3.923 4.651c0-.38 0-.775.11-1.155 1.298-.76 1.14.95 1.994.459.364-1.14-1.883-1.076-1.029-2.468-.49-.095-.68.459-.964 1.092-.285.632-.586 1.234-1.282.933-.918 1.535.838.253 1.17 1.14zm21.942-4.999a1.582 1.582 0 00-.617 0c.129.084.267.153.412.206l.205-.206zm2.199 3.528c-.204.093-.4.204-.585.332a.618.618 0 00.585-.332zm8.765 13.226c.096.115.208.216.333.3l-.269-.364-.064.064zm-18.953-4.43a1.31 1.31 0 00-.158.554c.19-.253.221-.428.158-.554zm7.594-4.287l.142-.174a1.214 1.214 0 00-.285.142h.143v.032zm4.081-8.006c0-.094-.158-.126-.205-.11-.048.016.174.11.205.11zM98.371 44.756a.68.68 0 00.601.538c0-.333-.126-.57-.6-.538zm5.822 3.179c-.063.19-.032.158 0 0zm4.208-.189c-.048.192-.032.208 0 0zm-9.429-2.452c0 .822-.775 2.341.49 1.582a3.8 3.8 0 00.349-.253v-.317c.095.665 1.076.332 1.582.506.052-.17.083-.345.095-.522a4.827 4.827 0 01-.791-.775.552.552 0 00-.159-.269c-.332-.269-1.012.11-1.566.048zm24.649-24.221c.08-.12.149-.247.205-.38-.11.11-.221.206-.205.38zm-8.766 12.845h.095c-.126-.141-.126-.094-.095 0zm9.129-13.588a1.793 1.793 0 01-.158.363c.111-.127.222-.127.158-.364zm1.155 45.862c-.237.38-.743 0-1.155.127 0 1.582 1.503-.965 1.139.76.287-.214.497-.514.602-.855l-1.187-.775c-.348.838.665.079.601.743zm10.916-30.232l-.19.094c.585.174.696.349 1.281 0-.553-.901-2.151-.79-2.61-2.088a.803.803 0 01-.395.601 2.518 2.518 0 011.914 1.392z" fill="#7B6255"/><path d="M134.204 34.504h-.348a.818.818 0 01-.3.269 1.15 1.15 0 00.648-.269zm-28.999 19.665l.159-.475c-.269.206-.269.364-.159.475zm-6.169-29.727a5.053 5.053 0 000-.696.759.759 0 000 .696zm31.292 18.7a1.575 1.575 0 00-.427.253c0 .095 0 .174-.111.285l.538-.538zm5.727-14.665c-.743-1.298 0 .205-1.012-.127l.174.902c.459-.174.617-.586.838-.775zm-8.464 10.647l-.284.094a.394.394 0 00.284-.094zm4.382-1.867l-1.218 1.883.649-.364c-.475-.633 1.186-.807.569-1.52z" fill="#7B6255"/><path d="M125.724 22.876h-.664c.065.02.129.047.189.08a.29.29 0 01.159.253c0 .173-.127.395-.254.632-.284.506-.522 1.06.412 2.247-3.86.743 1.882 2.673-1.582 3.338l.443.142a69.167 69.167 0 01-6.676 8.638l-3.164 3.718a31.84 31.84 0 00-2.263 2.737l-.332-.538c-.285.11-.253 0-.348 0h-.174l-.237-.11a4.056 4.056 0 00-.364-.19.49.49 0 01-.127-.175 3.878 3.878 0 01-.411-.902 5.272 5.272 0 010-2.657c.367-1.425.96-2.781 1.756-4.019-.111-.996-1.582-1.25-1.788-2.278.222-.269.57-.965 1.234-.553 0 .79.791.838.934 1.186.474-.933 2.04-1.582 1.866-2.958l-1.313.079c-.095-.57.507-.902.76-1.155.316.427 1.582.68 1.582 1.076-.681-3.165 1.819-.602 2.167-2.5-1.392-1.661-1.139-4.509-.965-6.692l.981-.11c-.807.695 1.028 1.154 0 1.945 1.186-.269 1.329-1.582 2.341-1.946-.474-.3-.87-.886-.696-1.329.696-.142 1.361.68 1.994.38l-.159.933c.823.396.522-.68.807-1.028.633.649 1.377.38 1.74 1.329-.094-1.36.364-.807.301-1.582-.617-.791-.301-1.14-.522-1.851l-.443.554c1.044.205-.206.253.522 1.582-.775-.38-.475-2.579-1.186-1.946.743-1.218.996-.585 1.582-1.899-.159.159-.206-.079-.174-.427.031-.348.126-.79 0-1.012.791-.08.205.538.348 1.503.269 0 0 .822.585-.174 0 .284-.127.522-.269.79-.142.27-.142.27-.221.412-.08.142 0 .11 0 .08v-.08c-.095.127-.254.665-.206.475.047-.19 0-.111 0-.174v-.19.743a7.056 7.056 0 000 .823c.044.433.123.861.237 1.281l.143.523v.19a.998.998 0 01.205.363c-.126-.411-.285-.902-.364-1.265a8.213 8.213 0 01-.174-.934v-.396c-.142-2.768 0-.774 0-1.392v.334c0-.095 0 0 .143-.38v.19a2.935 2.935 0 011.06-1.36c-.21.138-.397.309-.554.506-.142.205 0 0 .111-.19.077-.182.125-.374.142-.57.68-1.139.364 0 .506-.095a1.23 1.23 0 00-.316.364 2.46 2.46 0 01.538-.364c0 .127-.285.27-.38.317a5.14 5.14 0 01-2.041.237h.253c.19.095 0 .601.886 1.012-.443 0 0 .554.19.886.19.333 1.092 1.788-.617 1.804-.459.775-1.186 1.202-1.582.823-.3.364-.569.743-.902 1.091l-1.107-.648c-.19 1.218.554 1.423 1.345 2.8-1.076.459-1.329 2.104-1.266 2.88a.683.683 0 00-.269.426l.712-.174c-.569.823 0 1.092-.332 1.661.174 0 .253 0-.143.174a2.652 2.652 0 01-.3.27c0-.111 0-.222.158-.301l-.427-.159c-1.582-.126-.111 1.472-1.028 1.883a.669.669 0 01.095-.316c-.586.19-2.421-.46-1.693.395-.174 0-.111.285 0 .586l-.38.126c.123-.051.25-.094.38-.126.126.41.332.87.111.712-.295.232-.601.448-.918.648-.237 0-.285.27-.301.538l-.443-.316c-.174.284-.363 0-.427-.127-.886-.427-.949 0-1.123.459-.174.459-.411 1.123-1.028.538 0 1.123.522 1.281.712 1.756a7.906 7.906 0 01-1.045 2.816c-.379-.522-.98-.855-1.392-1.456a3.705 3.705 0 01-.411-2.69c-.301 0-.301.428-.253.871a2.723 2.723 0 010 1.503h-.095c.269.142.459.823.649 1.582.094 1.187-.981 2.136-1.282 1.898l.411-1.977a7.605 7.605 0 00-1.186 2.61c-.19.57-.364 1.155-.585 1.74a5.621 5.621 0 01-.728 1.361.567.567 0 01-.427-.411 1.576 1.576 0 010-.807c.189-.775.506-1.677.648-2.547-.36.235-.735.447-1.123.633l.506-1.503c-.696.411-1.439 1.85-2.056 1.075a1.453 1.453 0 00.411-1.582 2.132 2.132 0 01.807-1.835c0-.617-1.725 2.104-.791.08-1.139 1.36-.143.964-.206 1.581-.838 1.946-1.376 1.108-1.882.776a.571.571 0 00-.364 0c.727-1.092 1.091-1.013 1.202-2.152-.633.712-1.376.95-.791-.269-1.028 1.234-.522-.411-.538-.791a5.027 5.027 0 01-1.582 2.769c-.569.142-.933 0-1.012-.997-.111.364-.238.728-.333 1.107-.696.174-.585-.395-.348-1.044.238-.648.855-1.582.538-1.898.728-.08.76.174 1.582-.174a3.165 3.165 0 01-2.072-.712 53.224 53.224 0 011.582-1.851c-.823.348.079-.934-1.044-.396.411-.712.727-.617 1.06-.459.332.159.696.412 1.107.222.396-.743 0-.712-.411-.775-.412-.064-.57-.253.348-1.092h1.012c.095-.316-.443-.79.095-.98-.364.094-.253.22-.269.427-2.23.474-1.329-1.298-3.591-.87l-.237.68c-.27-.886-1.582-1.677-.649-2.547.838-.586 1.345.506 1.867.775.316-.839-2.23-.76-1.709-2.025a1.03 1.03 0 01-1.66-.08c-.365.792-1.092 2.58-.127 2.247l.253-.3c.553 0 .68.474.933.648-.174.997-1.06.586-1.582.839-.554 1.882 2.136-.174 1.898 1.329l-.442.3c.506.554.442 1.582 1.851 1.203-.76.6-.65.949-.412 1.202.237.253.506.459 0 1.044-1.582.997-1.44.285-1.25-.538.19-.823.649-1.803-.142-1.93-.665 1.012-1.424 0-2.088-.174.346.773.758 1.514 1.234 2.215-.412.364-1.804 1.962-.728 1.867v-.254c.443.855 1.582-.158 1.234.934-.237.3-.696.332-.886.395-.127.965.696.238 1.013.554 0 .95-1.124.427-1.282 1.313 1.187.111.174 1.582.57 2.357.585-.79 1.313-.49 1.961-.41.289.07.594.031.855-.112.126-.116.228-.255.3-.41.144-.307.26-.624.348-.95a7.022 7.022 0 001.962-.174 4.6 4.6 0 01-1.772 1.977 2.741 2.741 0 00-1.582 1.424c-.3-.417-.56-.862-.775-1.329-.95 1.313.712 1.677 1.693 2.373a1.454 1.454 0 01.664 1.487c.744.443.617.175 1.788 1.583l.49-1.82a2.103 2.103 0 01.427 1.883 5 5 0 011.408.079 1.452 1.452 0 01-.791.617c.333 1.076.665.664 1.044.095a2.201 2.201 0 011.583-.554c-.206.269-.428.538-.649.791.404-.155.736-.453.933-.838.238-.054.46-.163.649-.317 0-.316-.237-1.392-.807-1.74 1.677.38 3.022-.617 4.635.3 0 .633-.711 1.693-.506 1.662.902 0 1.74-1.582 1.582-2.484a2.91 2.91 0 01.427-.332c.206.411.491.838.902.696.127.142.317.205.617 0-.095-1.756 1.582-1.994 1.582-2.959a4.12 4.12 0 00-1.202.791c.332-1.455.316-2.926 1.044-2.5-.301.87.095 1.045.459 1.171.364.127.633.238-.143 1.124 2.01.806 0-1.772 1.582-2.168h1.187c.49 1.029-1.044 1.677-.649 1.851l.522-.633c-.174 1.298-2.721 2.658-3.986 4.905l1.708-.76c.586-.284 1.155-.617 1.74-.933a58.286 58.286 0 012.769-3.164c.475-.506.965-1.013 1.44-1.582a15.46 15.46 0 001.139-1.313 7.462 7.462 0 002.484-5.22v.126a3.168 3.168 0 00-.523-.507h.301l-.348-.933c1.218 0 2.072-.933 3.322-1.455-.933.253-.933.237-1.582-.127-.87-.68-1.218-.997-.395-1.582.68.38.364.902 1.265.57-.522.142-.838-.428-.712-.839.712-.221 1.219-1.012 1.93-.664 0 .332-.268.395-.442.49-.175.095 1.107-.617 1.313.364l.284-1.013c.855-.269.728.807 1.203.776.316-1.851-.965-3.386-.902-4.968.515.244 1.044.46 1.582.649.933-.965-.886-3.07-.664-4.335.443.332.094.743.205 1.202.531-1.006.95-2.067 1.25-3.164a9.977 9.977 0 000-5.015 10.694 10.694 0 00-3.164-5.047c-1.392-1.281-2.674.475-4.477-.221-.744.49-1.582-1.582-2.247-1.044a16.775 16.775 0 00-1.946-1.013 11.073 11.073 0 00-7.261 2.563 39.117 39.117 0 00-3.987 4.098c-.854.886-1.376-.46-2.151-.428-2.184 1.74-1.219 3.64-2.579 5.728-.19-.602-.918-2.089-1.709-1.314.253.507.775 1.124.079 1.44l-.189-.617c-1.013 0-.839.918-1.915 1.724a8.047 8.047 0 00-.949 6.993c-1.202 1.582-1.582-1.187-2.04-1.076 1.328-.87.268-1.012 0-1.582 0 .934-.222 1.883-1.583 1.582a3.592 3.592 0 00-.585 2.832c-.11-.712.712-.79.98 0-.838.57-1.392 2.927-2.784 2.2a35.928 35.928 0 00-2.199 9.19c0 .855-.079 1.74 0 2.627.03.954.126 1.906.285 2.847a20.28 20.28 0 001.693 5.237c1.281.744-.127-.965.696-.617 1.74 1.108.08 1.424 1.582 2.373l-1.092-.11c1.203 2.214 4.05 2.958 6.028 3.464-.87.601.902 1.724-.839 1.14.443.268.333 1.455.364 2.625.032 1.171.206 2.263.839 2.073.168-1.434.427-2.855.775-4.256.237-.3 1.345.554 1.345.237.395 1.108 1.17 2.437 1.819 2.61 0 .539-.364.65-.87.554a7.583 7.583 0 01-1.582-.6c-.427.774.237 1.36.791 1.85s1.044.839 0 1.392c2.262.364 0-.949 1.392-1.186.577.28 1.168.528 1.772.743l-1.313-.838c.81-.193 1.608-.436 2.389-.728a2.355 2.355 0 011.851.317 14.705 14.705 0 001.898-1.804c.317 1.36 1.408 0 2.389.127-.127.332-.285.664-.443 1.012a5.505 5.505 0 012.911-.158c-.411 1.44-1.329.142-1.361 1.36l1.693-.142c-.237-.743.459-1.677-.727-1.709.325-.859.7-1.699 1.123-2.515a6.655 6.655 0 012.278-2.136c.87.19.791.617.601 1.108-.19.49-.522 1.012.079 1.424 2.974-1.33.696-4.857 1.883-5.68 1.708-.902.743-1.693 1.867-3.085.316 1.044 1.582-.316 2.42 0l.269 1.17a.633.633 0 011.171-.285c-.981-.71.506-2.498.727-3.812l-.965-.443a6.322 6.322 0 011.219-3.005c.506-1.377-.428-1.582-.807-3.164a4.318 4.318 0 012.879 1.44c-.664 0-.744.758-1.376 1.107-.238 1.993.696 4.477-.839 5.68 1.582 2.166.538-1.187 1.772-1.409a.266.266 0 01.095.269.304.304 0 01.19-.142 2.78 2.78 0 00.443 2.784c.49-1.092-1.582-2.167.174-2.674 0-1.265 2.136-.838 2.658-1.281-.396-1.123-2.089-2.247-.839-3.465l.791 1.392c1.06-1.582-1.265-1.882-.3-3.353-.459.442-.886-1.219-1.582-.238a2.468 2.468 0 01.98-2.642c0-.332-.395-.285-.791-.57-1.36.412 0 1.9-1.582 1.9l.934 1.407a1.583 1.583 0 01-2.263-.933c-.094.253 0 .57-.363.585-2.041-1.076 1.297-.522-.206-1.82l-.206.65c-1.408-.554-.316-1.978.19-2.658 1.076-.46 1.725-1.108 2.705-.649l-.237 1.376c1.092-.174.38-1.708.775-2.357.13.032.266.032.396 0a.946.946 0 01-.301-.095.886.886 0 01.601-.174c.364-.57.206-1.724.791-2.136l-.901-.348.443.301c-.301.538-1.203.997-1.582.269 0-1.503 1.771-.933 2.689-.87 1.187.933-.601 1.218-.475 2.056 1.503.285.776-1.186 2.263-2.072 1.218 1.218-.744 1.503.443 2.452.775-.965-.127-1.709.775-2.705.601.506.142 1.582 1.044 1.962l.759-.554c-.775 1.867 1.962.522 1.582 2.136.459-.19.269-.586.143-.981-.127-.396-.206-.791.522-1.17-.775 0-2.326.379-2.436-.919.316-.316.632-.68.949-1.028.949-.253 1.028 1.978 1.993 1.392v-1.582c-.459-.11-.949.46-1.408-.19.791-.632-1.265-1.945-1.693-3.037.238-.728.459-1.345 1.076-1.582-.506-1.187-.728-2.452-1.123-3.718a6.017 6.017 0 00-2.009-3.1c1.376 1.028 1.582-.602 1.661-1.978a2.516 2.516 0 001.724 1.297 2.736 2.736 0 001.582-.395 2.08 2.08 0 00-1.582-1.203c-.569 0-1.028.127-1.107.538-.301-1.44-.981-1.345-1.361-1.582l-6.233-4.588-1.281 3.275c0 .174-.238.285-.776.206-.885 0-.553-1.424-1.075-1.756-1.187.759.743 1.724-.665 2.294 0-.206 0-.333-.253-.49a1.453 1.453 0 00-.759 2.024c-1.883-.98-1.693 1.677-2.8.127-1.108 1.692.885.57 1.044 1.344 0 1.155-1.503 1.582-2.057 1.709.316-.348.269-1.028.807-1.123l-1.202-.696c-2.453 1.028.996 3.164-1.393 4.034.301-1.329-.458-.965-.727-2.04 0 .49-1.582 1.581 0 1.454-.567.45-1.177.841-1.82 1.171a4.663 4.663 0 000 2.674 5.03 5.03 0 01-2.926 1.186 8.506 8.506 0 01-1.946 3.164 7.037 7.037 0 00-1.725 3.592l.158-.143c-1.123 1.756 1.962 0 .997 1.867-1.345-.965-1.582.68-2.626.965a6.135 6.135 0 00-1.234 3.401 5.379 5.379 0 01-1.139 3.275.725.725 0 01-.554-.854 15.459 15.459 0 00-1.582 4.952l-.19-.111c-1.898 2.5-.617 5.363-.427 8.21-.19-.252-.791-.347-.997-.537a6.816 6.816 0 00-.332 2.594c.025.447.127.886.301 1.298.247.46.533.9.854 1.313-.3.952-.3 1.974 0 2.926.26.838.679 1.616 1.234 2.294l.902 1.013c.38.364.822.791 1.392 1.266a13.815 13.815 0 005.078 2.515c.459.316-.854.222-1.582 0 1.659.585 3.441.732 5.174.427a18.99 18.99 0 003.243-.902 9.74 9.74 0 001.234-1.107c.332-.38.68-.791.68-.997l.443-1.44a3.257 3.257 0 012.009-2.167c1.392 1.709-.997 1.392 0 2.864.222-.617.332-1.266 1.234-1.266.143.965.253.49.459 1.329.823.142.522-3.164.617-3.022-.237-.364-.522-.427-.902 0-.332-1.471 2.009-1.582 2.642-2.879-.332.237-1.582.696-1.882-.427 1.582-.68.711-2.674 1.012-4.082 1.788-.221.348 2.152 1.582 3.164.554.27 1.851.807 1.709 1.693 1.313-.68 1.249-2.357 1.946-3.449l.268.348c1.203-1.344 1.203-4.002 2.848-4.414l-.902.19c0-.38.728-.917.412-1.882.49.553 1.756.174 1.867.933-1.14-2.151 1.582-3.876.506-5.964.743 0 1.234.917 1.582 1.36-.855.712-1.44.665-1.139 1.709.585-.68 1.471-.807 1.772-.348-.475-1.582.458-3.655-.412-4.92.965 0 1.677-.3 2.484.617 1.076-2.642-3.734-1.203-1.898-3.623 1.772-.427.458 2.04 1.93.728v.395c3.354.712-1.187-2.104-.222-3.29 1.582.79.364 1.582 1.978 1.392.506-1.456-1.266-3.37 0-4.256l.49.585c.38-.838 1.582-2.183 1.962-3.053.3.142.19.222.19.427 1.392-1.155-.396-1.044 1.313-1.677l-.775-.822c-.87.332-2.231 1.06-1.836 2.294-.379-1.219-2.547 0-3.543-1.06l.395.443c-3.164.57-4.999 2.642-7.372 4.224.332 2.404-2.294 1.835-2.547 3.955 1.313 1.582.095.538-.665 1.961.38-.775-1.06-1.075-1.582-.87.146.442.146.92 0 1.36-.727-.22-3.164 0-2.736 1.504-1.108.205-.285-.601-.443-1.029-.981-.458 0 1.092-.681.823a.677.677 0 01-.126-.3 13.432 13.432 0 01-3.164 2.04c1.186 1.582-.617 1.487-.665 2.437-.237-.602-1.091 0-1.582 0l.285 1.582c.142 1.471-1.392 0-1.788 1.139l.396.126c-.238.95-2.532 1.14-3.702.696a9.08 9.08 0 01-1.63 2.168c-.051.135-.12.263-.205.38h-.095c0 .19.11.442.158.648a6.72 6.72 0 01.142 2.373c0 .538-.269.712-.174.601l.143-.11s-.38.237-.19.126h.095a3.27 3.27 0 01.901-.3 19.377 19.377 0 012.769-.348h.301v-.174c.87-2.532 2.214-4.747 2.325-8.021-.49-.538-1.028.11-1.803-.396a4.035 4.035 0 01.126-1.471c-.617.427 0 .49-.474.3l.332 1.06c-.143 0-.19-.095-.475 0 .111.348.412.791.238 1.187-.396-.665-1.741-1.123-1.045-1.835.174.095.222.221.301.458.237-.648-.411-.822 0-1.25.411-.426 0-.49.617-.426l1.25-1.662c-1.345-1.423.617-2.072.854-2.294 1.139.633 0 1.33 1.013 2.152l1.107-.316-.965-.38.57-.791.158.11c-.333-.237-.665-.49-.253-.585.142 0 .443 0 .458.143l-.269-.823c.839.744.523-.427 1.582.127a3.495 3.495 0 00.617-2.342 1.693 1.693 0 011.377-1.772c-.649 0-1.392-1.471-.902-1.898a.776.776 0 011.013.364l-.127-.981c1.076.095 1.471-.19 1.756-.633.293-.535.711-.99 1.218-1.329l.38.38c-.222-.791-.269-1.582.395-2.01l.744.792c1.171-.206-1.297-2.025 0-2.358-.87-.79-1.772-.664-2.674-1.297 1.044.554 1.994-.158 1.187-.538.411-1.139.554-.538.823-.411v-.98c.601-.523 1.234.9 1.582 1.581-.396-1.392.822-1.281 1.582-1.677l.11.601c.317-.174.586-.38.902-.522a1.75 1.75 0 01.389-1.295 1.753 1.753 0 011.193-.635c.143.522.285 1.029.459 1.582.949.253 0-.6-.111-.917.317-1.14 1.108-.427 1.978 0 .018-.188.084-.367.19-.522l-9.651-4.335c.222-.158 0 0-.696.206l-.601.126-.759.08h-1.583c-.189 0-.11-.017-.047 0zm-10.236 11.438l.222.111c-.016.38.031.696-.222-.11zm5.759-6.755c0 1.281-.506.601-.918.443.95-.712.823-1.487 1.725-2.12a3.91 3.91 0 01-.965-.237 1.293 1.293 0 011.471-.27c1.155 1.187-2.326 2.2-1.313 2.184zm-15.251 20.914l.253-.363-.253.363zm6.977-3.765a.587.587 0 00.522.412c-.127-.364-.285-.65-.475-.412h-.047zm12.166-8.574c.696.126.996-.57 1.17-1.076-.422.304-.8.666-1.123 1.076h-.047zm-21.12 20.155c-.523 0-1.741-.095-1.203.822.633-.205.949 1.076 1.677.49a.343.343 0 010 .111 9.506 9.506 0 00-.474-1.423zm26.894-23.636c.538.348 1.013.902 1.582.965l-.095.08c.238 0 .427 0 .506.142.254-.19.538-.412.459-.68-1.914-1.013-1.93-1.71-2.531-.507h.079z" fill="#7B6255"/><path d="M131.451 47.667c0-.143.143-.222.174-.317-.071.098-.13.204-.174.317zm1.741-14.444c-.095 0-.443.142-.838.411a.871.871 0 00.838-.411zm-30.138-4.019l.158.253.744-.522c-.522-.79-1.392-.98-2.357-1.36.727 1.028.126 1.582.205 2.658.397-.367.814-.71 1.25-1.029zm-7.151 1.076c-.317.19-1.06.68-1.155.965l.601.158c.19-.38.348-.759.554-1.123zm2.595 19.048l-.332-.46-.586-.98c-.49.08-.237 1.108.27 1.471a.49.49 0 00.648-.031zm5.363-13.858a7.822 7.822 0 01-.807.236c-.538.87-.332 1.393.49.68-.553 0 .412-.537.317-.917zm-1.519 15.709c.917-1.044 1.36.79 2.056-.317-.522.317-1.566-.807-2.056.317zm4.873-13.384c.601-1.709-.411-.333-.554-.918.222.158-.142 2.088.554.918zm3.528 9.065a1.053 1.053 0 01-.358.881 1.043 1.043 0 01-.924.226 5.58 5.58 0 01.696-1.091 8.763 8.763 0 01-2.056 1.582c.743.49 2.056.49 1.851 1.724.791-1.14 1.534-2.721.791-3.322zm-2.453-9.192c-.174-.49.127-1.677-.237-1.582-.348.902-.775 2.247-.174 2.057l-.775 1.408c.11 1.123.585-1.962 1.186-1.883zm6.565 9.792l-.537-.252a6.78 6.78 0 01-1.582 1.582 3.828 3.828 0 00-1.361 1.708 7.906 7.906 0 003.48-3.037zm-5.394-7.482l.396-2.01c-.427-.094 0 .665-.332 1.203-.111-.221-.285-.348-.491.08.68-.539-.269 1.613.427.727zm1.835-2.943c.183-.354.347-.719.49-1.091a16.026 16.026 0 01-.427-1.756c-.443.965-.031 1.17-.063 2.847zm.76.744l.11.285c.216-1.006.353-2.027.412-3.054-.253 1.377-.253 1.187-.522 2.769zm18.43-7.609c-.443-.46-1.582.11-.791 0 .348.458 1.709-.46.791 0zm-11.833-2.469c.601-.079.554-1.582.427-2.341-.047.744-1.17 1.962-.427 2.341zm.395-2.61v.269a.378.378 0 000-.269zm2.674-.711a.437.437 0 000 .22v-.22zm.19-.65c.379 0 .711-.712.442-1.328a4.614 4.614 0 00-.632 1.914c.095-.143.648.079.19-.585zm-3.924 3.038c-.095-.459.317-.57-.174-.933-.3-.08-.237.775.174.933zm-7.499 36.387c1.108.316 1.772 0 1.44-.855-1.187.048-.538.57-1.44.855zm2.784-1.171l.19.427.807.57c-.364-.317-.68-.665-.997-.997zm7.532-1.202a.935.935 0 01-.238.57c.348-.317.617-.602.238-.57zm-.412.729a.823.823 0 00.176-.16l-.176.16zm-.601-.018l.127.475c.146-.164.305-.318.474-.459a.408.408 0 01-.467.085.408.408 0 01-.134-.1zm2.926-1.693l-1.803-.458c-.854 1.313 1.724-.253 1.313 1.724.206-.443.332-.838.49-1.265zm2.959-2.847c1.123-.395.585-2.91 2.12-2.183.632-1.297 0-1.582-.538-1.978-.538-.395-1.013-.727-.332-2.009-2.405 1.471 1.423 3.164-1.076 4.398 1.629-.126-.063 1.25-.174 1.772zm-2.168-1.582c.411.712 1.424 0 1.313-.728-.316.127-1.534-.316-1.313.728zm5.427-2.753l.996-.221-.269-.49-.727.711zm2.073-2.088l.3 1.14c-.142-.412.57-1.203-.3-1.14zm3.242-2.436c.649-.364-.791-2.089-1.218-.665l.269-.221c.222.253 1.282.079.949.886zm1.804-9.303c-.253.38-.285.965.142 1.108l.237-1.282-.379.174zm-4.619-2.404c-1.329-.317-.443.996-1.218 1.44.664-.65.775-.475 1.218-1.44zm6.992 2.073c.316.553-.253.853-.475 1.09.728.222.981-.632.475-1.09zm.538-1.978c.664-.111.617.427 1.076.316a1.58 1.58 0 001.004-1.551 1.58 1.58 0 00-.166-.632 4.286 4.286 0 01-2.547-1.029c-.174 1.424 1.582 3.165-.316 2.927l1.471 2.12c.87-.838-1.013-1.534-.522-2.151zm-5.141.379l1.012-.253c-.728-.237-.585-.775-.617-1.218-1.566-.585-.285.997-.395 1.471zm7.546-8.527c0-.68.11-1.376.126-2.104l-.237.649c.047.49.095.98.111 1.455zm.87-1.139h.49a42.517 42.517 0 00-.553-1.867c.047.665.063 1.25.063 1.867zm.981-2.31l-.111.285c0 .475.143.997.19 1.456 0-.554-.031-1.155-.079-1.74zm-.08-6.011c-.174.253-.348.506-.538.743.38.76-.268 2.294.649 2.073a3.849 3.849 0 01-.111-2.816zm-8.337 11.865a1.817 1.817 0 00-.933-.918l.585 1.092c.016-.095.095-.317.348-.174zm-2.389-.379l.396 1.581c.838-.57.126-1.455.632-2.215-.585 0-.253 1.013-.838 1.108l-.19-.475zm-10.219 15.028c-.807-.363-.76-.11-1.076-.965a8.418 8.418 0 01-.38 2.911c.601 0 1.313.981 1.187.538l-.111-1.297.538.332c.791-.601-.902-.807-.158-1.519zm22.781-8.274a1.585 1.585 0 001.123.475c.079-.997-1.155-.285-1.123-.475zm157.633 11.201c-1.155.317-.221.317.159.649l-.159-.649zm.159.728l.126.459a.363.363 0 00-.126-.459zm1.819 3.733c-1.298-.22-.981-1.882-2.437-1.582a1.58 1.58 0 002.437 1.582zm-.158-1.676l-.664.348 1.423-.032-.759-.316zm.206-.886l-.158.269 1.376.57-1.218-.84zm1.566 5.442l-.776-.617c.222-1.345 1.44-.411 1.582-1.297-.743-.918-1.898.996-2.578-.38-.681.68 1.503 1.883.19 2.642.458 1.297.711-.522 1.582-.348zm10.757-3.67a.671.671 0 000-.19c-.079.158-.095.285 0 .19zm-13.21-5.332a1.303 1.303 0 00-.316-.459 1.93 1.93 0 000 .443l.316.016zm21.627 8.717c.003.225.034.448.095.664a.648.648 0 00-.095-.664zm21.436-6.945c.139-.07.267-.161.38-.269l-.412.174.032.095zm-35.279-9.334c.17.136.371.229.586.269-.269-.253-.459-.3-.586-.269zM328.509 59.2l-.095-.174a.85.85 0 000 .284l.095-.11zm-21.23-8.844a1.283 1.283 0 00-.412-.38c.1.163.242.294.412.38zm8.178 17.086a.616.616 0 00.633.364c.016-.285-.127-.459-.633-.364zm4.746 3.575c-.11.174-.079.174 0 0zm3.971 2.279h-.095c.016.141.032.173.095 0zm-8.084-5.49c0 .775-1.107 2.326.696 1.107v-.284c0 .6.934.316 1.314.522a1.76 1.76 0 00.189-.49 5.169 5.169 0 01-.585-.76c-.032-.665-.933-.11-1.614-.095zm1.123-16.121c-.174.348.206.364 0 0zm4.367 1.234l-.285-.316c.047.158.111.284.285.316zm6.981 11.281c-.15-.05-.116-.017 0 0zm-7.567-11.85l.301.253c-.048-.127-.143-.254-.301-.254zm8.068 8.589v-.078a.34.34 0 000 .078zm20.932 5.19c-.807.19-1.219-.396-1.867-.633-.839.601 0 .712.68.76.68.047 1.456 0 .174.585a4.742 4.742 0 001.93-.396 13.688 13.688 0 01-1.076-1.281c-1.408.506.95.443.159.965zm-4.857-22.876v.19c.316-.523.506-.602.237-1.25-.997.348-1.25 1.93-2.595 2.104a.765.765 0 01.475.49 2.584 2.584 0 011.883-1.534zm-1.836 1.534v.08a.93.93 0 00-.111.332c.098.085.16.203.174.332a1.009 1.009 0 00-.063-.744zm-9.112 14.143l-.285-.347c.016.316.127.395.285.348zm-33.777-7.42a4.657 4.657 0 00-.664 0 .806.806 0 00.664 0zm50.799.112c.008.245.04.489.095.727.078.127.147.26.206.396a9.082 9.082 0 00-.301-1.123zM321.153 43.6c.949-1.17-.237 0-.332-.996l-.823.459c.38.427.87.395 1.155.538zm29.853 22.94a.334.334 0 010-.126h-.095l.095.126zM329.949 32.1v.316a.376.376 0 000-.317z" fill="#7B6255"/><path d="M345.469 47.556c.522.522 1.044 1.012 1.582 1.582l-.238-.728c-.727.317-.506-1.297-1.344-.854z" fill="#7B6255"/><path d="M327.876 48.616l-.363.854c2.705-.506 2.847 3.006 5.679 1.804-.127 3.939 3.022-1.234 2.895 2.357l.237-.396c.633.649 1.266 1.298 1.867 1.978a13.76 13.76 0 011.472 1.74c.126.206.174.364.142.396l.206-.143.379-.269.728-.459c.353-.21.717-.4 1.092-.569.223-.11.456-.2.696-.269h.474a.98.98 0 01-.316 0 4.403 4.403 0 01-1.867-.87c-.554-.427-.728-.744-.633-.586.104.157.184.327.238.507.061.143.109.29.142.443.127.49-1.092-4.145-.57-2.183a1.279 1.279 0 01-.585.458v-.633c-.475-.158-1.218-.38-2.215-.743l-3.48-1.282c-2.437-.933-4.873-1.898-7.262-2.958a59.291 59.291 0 01-13.494-7.91c-1.14-.11-1.503 1.36-2.627 1.408-.269-.269-.996-.744-.506-1.36.823.11.933-.68 1.313-.776-1.012-.664-1.582-2.325-3.037-2.278v1.345c-.601 0-.934-.586-1.171-.87.459-.3.759-1.487 1.171-1.456-3.354.396-.601-1.946-2.626-2.483a3.551 3.551 0 01-1.171.585l-3.386 9.096c-.174-.126-.095-.284.158.57.072.253.119.513.143.775v.475a1.203 1.203 0 010-.19c.053-.337.195-.653.411-.918l.364.633c-.332-.079-.348.333-.427.696-.079.364-.206.728-.301.665 0 .601.886-.158 1.582.459 0-.554.301-1.203.744-1.298.443.475.174 1.582.838 1.915l-.98.332c.189.949 1.012.126 1.582.19-.19.901.822 1.487.237 2.325 1.439-.712 1.487 0 2.816-.19-.665-1.328.759-.949.949-1.677l-1.36-.221c1.471 1.297-.617-.095-1.092 1.36-.522-.996 2.104-1.819.664-2.198 1.93 0 1.994.775 4.161.427-1.107-.238.617-.807.285-1.487 1.297.569.095.632 0 1.708.696.285.538 1.187 1.677.506.854.965-.696.934-.459 1.756-.838.728-2.389-2.657-3.544.507-.585-.222-1.787.617-2.563.205.538.712 1.045 2.152 2.184 1.867l.87-1.677c.664.285 1.376-.807 1.772-.411-.491.348-.428 1.297.142 1.408 0-.3-.253-.348 0-.617.997.364 1.724-.696 3.022-.364a12.531 12.531 0 01-1.108-2.753c.87-1.044.744.158 1.345.317-.174.11-.301 0-.269.395l.87-.237c.902 1.17-1.091 1.582-.474 2.673 0 1.345 1.186 0 1.328.839l.095-.348c.075.069.139.149.19.237v-.079c.68.222 1.234.696 1.962 0-.206.411.554.253.933.143.38-.111 2.025-.412 1.487 1.186.554.696.697 1.582.206 1.788.253.395.491.79.696 1.186l-.996.839c1.059.538 1.582 0 3.037-.364a1.944 1.944 0 00.791 1.392c.397.31.847.547 1.329.696a.693.693 0 00.285.396l.126-.712c.491.822 1.013.348 1.361.886 0-.174 0-.238.095.174a1.6 1.6 0 01.095.348c-.127 0-.174 0-.19-.238l-.317.317c-.822 1.281 1.234.585 1.108 1.582 0 0-.206-.11-.222-.19-.11.57-1.677 1.582-.601 1.36-.111.127.143.159.427.206a1.406 1.406 0 01-.126.27c.038-.095.085-.185.142-.27.396 0 .87.095.601.174.002.288-.03.574-.095.855-.174.142 0 .348.159.474h-.538c0 .206-.253.158-.396.11-.965.143-.775.27-.617.57.158.301.206.744-.411.19.353.48.799.884 1.313 1.187a2.366 2.366 0 01.269 1.993 3.973 3.973 0 01-1.361-1.582 3.81 3.81 0 01-.095-2.246s-.158.174-.158.553c.02.383-.04.765-.174 1.124v-.08a8.39 8.39 0 01.412 1.582.872.872 0 01-.459.918.666.666 0 01-.775-.142c.202-.412.381-.835.537-1.266a2.99 2.99 0 00-1.328 1.266 5.453 5.453 0 01-1.582 1.772c-.807-1.029.411-1.804.791-2.975a9.434 9.434 0 01-1.076-.253l.569-.854c-.696-.142-1.392.538-1.961-.396 1.17-.316-.617-1.708.996-2.104-.221-.6-1.582.839-.965-.411-.996.617 0 .744 0 1.187-.791 1.392-1.455-.19-2.23-.317.474-.649.949-.443.68-1.36-.522.363-1.218.395-1.076-.475-.664.775-.823-.443-1.123-.791a1.583 1.583 0 01-.522 1.993 1.582 1.582 0 01-1.582-.759l.174.775c-1.582.57-.285-1.708-1.408-2.104a6.983 6.983 0 001.772-.221 12.2 12.2 0 01-2.848-.349l.38-1.724c-.602.459-.681-.775-1.408 0-.317-1.297 1.582-.19 2.135-.664-.522-1.472-2.025.38-1.851-1.693l1.013-.332c-.269-.364-1.282-.649-.965-1.013-.253.222 0 .3.19.506-1.693 1.203-2.484-.585-3.94.95l.333.585c-.965-.475-2.532 0-2.468-1.155.063-1.155 1.36-.617 1.993-.712-.49-.79-2.262.95-2.832 0 .111.68-.522 1.076-1.186 1.14.332.6.933 1.945 1.455 1.17v-.316c.459-.317.854-.175 1.171-.222.601.664-.427.95-.617 1.36.759 1.345 1.582-1.313 2.515-.268l-.11.221c.838.11 1.582.791 2.657 0-.585 1.392 1.44.696 1.313 1.725-2.025 2.23-1.471-1.756-3.164-1.171 0 .933-1.329.68-2.04.917.838.285 1.692.523 2.531.776-.174.41-.76 1.946.316 1.47l-.079-.189c.886.411 1.582-.649 1.835.19-.095.269-.601.459-.791.554.332.712.918 0 1.44 0 .348.68-1.108.648-.886 1.313 1.408-.285.791 1.107 1.392 1.582.918-1.44 3.686.142 3.512-1.994l2.025.19c-.158 1.029-2.42 1.092-2.99 2.484l-1.012-.95c-1.203 1.773 3.085.823 2.309 3.165.554.554.538.174 1.092 1.93l.933-1.677a2.83 2.83 0 01-.189 2.104c.434.185.831.448 1.17.775a.976.976 0 01-.854.206c0 1.25.427 1.044.902.68.474-.364 1.028.095 1.582.364l-.823.396c.411 0 .949 0 1.123-.254.241.1.501.137.76.111a6.335 6.335 0 00-.506-2.294 6.466 6.466 0 002.515 1.582l3.338 1.234c0 .554-1.028 1.392-.68 1.408 1.582.143 2.753-1.408 2.246-2.104.193-.133.394-.254.601-.364a1.443 1.443 0 001.582.285 1.186 1.186 0 00.934-.237 1.993 1.993 0 01.474-1.915c.364-.569.76-1.123.57-1.581a9.295 9.295 0 00-1.107 1.36c-.127-1.392-.823-2.468.158-2.579 0 .839.585.728 1.028.586.443-.143.823-.238.348.996 1.297-.316 1.108-.775.76-1.186-.349-.412-.839-.886-.254-1.582.357-.301.695-.623 1.013-.965 1.091.395 0 2.12.475 1.946 0-.3.094-.602.126-.918a4.114 4.114 0 01-.506 2.895c-.522 1.25-1.361 2.595-2.009 3.955a13.353 13.353 0 003.654-3.844c.422-1.551.682-3.142.775-4.746a15.798 15.798 0 00-.411-4.525 7.59 7.59 0 00-3.892-5.49l.095.111a2.02 2.02 0 00-.68.254l.158-.254-1.028-.095c.459-1.107-.079-2.325-.158-3.686-.095.965-.095.965-.712 1.503-.95.554-1.377.76-1.677-.253.601-.49.981 0 .981-.965a.622.622 0 01-.411.48.617.617 0 01-.618-.132c0-.76-.538-1.503 0-2.057.332 0 .269.396.301.602.348 0-.206-1.266.807-1.108l-.886-.633c0-.917 1.028-.395 1.17-.87-1.582-.965-3.543-.269-5.015-.854.317-.269 1.472-1.582 1.124-1.202-.602-1.218-3.164-.19-4.272-.791.459-.317.728.142 1.202.174-2.863-2.927-5.632-4.604-8.194-7.72l-1.583 1.17-.348-1.471a10.864 10.864 0 00-4.651-2.437c-.791-.221-1.582-.364-2.436-.538a45.664 45.664 0 00-3.259-.553c-1.582-.222-.712-1.408-1.487-2.057a7.357 7.357 0 00-4.952.902 13.292 13.292 0 00-3.908 3.575l-4.746 6.218 4.746 1.85c.279.1.545.233.791.396-.601.19-2.072.918-1.376 1.677.506-.253 1.139-.76 1.392 0l-.601.174c-.111.997.823.823 1.582 1.883a7.817 7.817 0 006.661 1.265c1.344 1.298-1.329 1.393-1.298 1.915-.648-1.33-.917-.317-1.582 0 .886 0 1.74.332 1.266 1.582a3.157 3.157 0 002.468.743c-.649 0-.586-.743.126-.949.38.854 2.358 1.582 1.361 2.864a148.021 148.021 0 0013.004 7.42c1.123-.38-.443-.57.222-.887 1.582-.443.648.918 1.898.57l-.728.617c1.282.727 3.37-.095 4.968-.317-.601.823.759 1.203-.554 1.298.696.11-.142 4.556.712 3.907l.76-4.129c.189-.348.996.222 1.012 0 .269.981.633 2.136 1.028 2.294-.174 1.044-1.091.459-1.582.222-.712 1.582 1.472 1.756.111 2.942 1.313.174.142-.902 1.076-1.234l.917.712-.601-.838c1.044-.174 1.756-1.33 2.611 0l1.772-1.203c-.269 1.345.885.522 1.502 1.013l-.664.728a2.96 2.96 0 011.867 1.17c-.855 1.044-.886-.49-1.392.554.332.221.712.443 1.091.664.158-.759 1.029-1.202.285-1.835 1.392-1.234 2.041-2.199 4.825-1.977 1.345 1.36-1.471 1.155-.981 2.468a3.26 3.26 0 003.465-1.582c.744-1.044 1.076-2.073 2.025-2.278a2.708 2.708 0 002.152-1.06 9.443 9.443 0 011.582-1.804c0 .601.474.538 1.075.316a4.467 4.467 0 011.804-.57c.005.487-.022.973-.079 1.456.427-.806 1.218-1.265 1.582-.648-.522-.332-.111-1.234.348-2.452a10.05 10.05 0 00.775-3.987l-1.107.174a10.543 10.543 0 00-.443-2.674c-.269-.917-.586-1.724-.744-2.452-.585-.95-1.076-1.076-1.582-1.123-.629.015-1.257-.01-1.883-.08a3.98 3.98 0 012.231-2.325c-.095.728.696 1.218.886 2.215a11.533 11.533 0 013.038 3.67 5.738 5.738 0 010 5.174c.87 1.218 1.075.632 1.154-.538a15.545 15.545 0 01.254-3.797.409.409 0 01.221.38c.002-.177.029-.353.079-.523.411 1.583.222 4.05 1.234 4.873a3.061 3.061 0 00-.601-2.626c-.411-.649-.554-1.202-.095-2.895a7.288 7.288 0 01-.253-3.354 6.585 6.585 0 000-2.69 6.236 6.236 0 00-2.373-.474 2.879 2.879 0 01-2.12-1.44c.6-.048 1.203-.048 1.803 0-.965-1.186-1.582-.965-2.088-.822a1.44 1.44 0 01-1.756-.349c.348.586-1.424.57-.554 1.472a2.53 2.53 0 01-2.373-1.582c-.316 0-.364.332-.712.664 0 1.408 1.82.348 1.488 1.978a30.78 30.78 0 011.582-.538 1.456 1.456 0 01-1.345 2.025c.237.158.569.221.506.554-1.582 1.66-.221-1.472-1.867-.333l.586.364c-.886 1.218-1.978-.142-2.547-.76-.206-1.154-.681-1.913 0-2.768l1.265.507c.095-1.092-1.582-.712-2.104-1.235a.718.718 0 000-.395.726.726 0 01-.142.269.742.742 0 010-.601c-.475-.475-1.582-.585-1.883-1.234l-.554.79.412-.363c.443.411.664 1.392-.127 1.582-1.439-.332-.49-1.93-.221-2.784 1.17-.965 1.028.822 1.882.886.601-1.408-.981-.997-1.487-2.642 1.44-.902 1.282 1.06 2.452.095-.743-.934-1.677-.254-2.389-1.314.586-.49 1.582.19 2.105-.6l-.348-.855c1.582 1.155.965-1.804 2.42-1.123-.174-.997-1.582.38-1.819-1.06-.19.727-.317 2.23-1.487 2.136l-.602-1.06c.095-.902 1.962-.65 1.772-1.583l-1.281-.269c-.253.396 0 .934-.617 1.25-.237-.822-1.994.839-3.022.95-.49-.38-.838-.744-.696-1.33-2.088.27-3.718-.838-5.632-.442 1.329-.3.854-1.424.712-2.342 1.076.412 1.883-.838 2.326-1.693-.681-.253-1.899.839-1.851 1.456-.681-1.14-1.219.475-1.582-.918-.317-.79 1.028-1.107 1.123-1.708-1.06-.712-1.218 1.392-2.231.411.174-.142.301-.126.348-.427a1.346 1.346 0 00-2.025.174c.237-2.12-2.041-.854-1.028-2.468-1.835-.38-.237 1.044-.87 1.471-1.013.412-1.899-.79-2.152-1.25.411.159 1.013-.142 1.25.317l.253-1.345c-1.582-1.85-2.563 2.057-4.002.127 1.281-.158.743-.744 1.582-1.36-.443.157-1.836-.902-1.329.458a7.589 7.589 0 01-1.582-1.313l-.681.11-28.777 5.316 20.93 5.506c.607.206 1.259.24 1.883.095a4.53 4.53 0 01.411 2.926c2.263 1.06 2.595 3.75 5.063 4.746l-.079-.19c1.186 1.583.648-1.834 2.009-.426-1.313.98.079 1.582 0 2.657 1.218 2.294 3.876 1.978 4.841 4.256a.745.745 0 01-.965.206 15.708 15.708 0 003.386 3.164l-.174.11c1.123 2.595 3.907 2.753 6.201 3.956-.301 0-.696.49-.949.57a6.033 6.033 0 001.708 1.581 2.979 2.979 0 002.563.38c.38 1.155.728 1.234 1.139 1.313.412.079.823.174 1.709 1.455 0 .333-.364.127-.554.111a9.26 9.26 0 003.465 1.978 12.194 12.194 0 004.556-.997 22.339 22.339 0 015.173-1.14c.443 1.013-.316 1.362-1.186 1.583-.87.221-1.74.316-1.756 1.202a6.581 6.581 0 013.559-.949c-.696 1.076 0 .57-.522 1.582.712.158 1.883-.838 2.627-1.85.743-1.013 1.107-2.042 1.218-1.994 0-.206-.269-.27-.522-.238-.369.062-.72.202-1.029.412a2.36 2.36 0 01.934-1.187 15.962 15.962 0 002.404-2.167 8.425 8.425 0 001.472-2.484 8.212 8.212 0 00.522-3.386 6.756 6.756 0 00-1.313-3.86c.178.378.327.77.443 1.171.201.71.302 1.445.3 2.183a3.598 3.598 0 01-.443 1.867c-.221.316-.411.19-.633-.427a5.173 5.173 0 00-.917-3.781 1.67 1.67 0 00-1.218-.712 13.172 13.172 0 01-2.31-.285c0-1.835 2.151-.095 3.291-1.17.332-.523.996-1.772 1.882-1.583-.554-1.455-2.278-1.582-3.322-2.388l.364-.238c-1.266-1.376-3.939-1.582-4.288-3.306l.159.933c-.396 0-.902-.807-1.883-.57.57-.442.237-1.74.997-1.803-2.215 1.013-3.86-1.898-6.012-.807 0-.743.949-1.202 1.408-1.503.696.902.649 1.488 1.709 1.219-.681-.617-.791-1.503-.333-1.804-1.677.411-3.717-.57-4.967.285 0-.965-.332-1.661.601-2.484-2.674-1.107-1.187 3.765-3.623 1.898-.459-1.755 2.041-.474.696-1.93h.412c.617-3.37-2.105 1.203-3.323.27.744-1.583 1.582-.396 1.345-2.01-1.487-.474-3.338 1.345-4.271.174l.553-.522c-.87-.348-2.294-1.487-3.164-1.787.111-.317.206-.206.412-.206-1.282-1.345-1.013.459-1.804-1.203l-.696.586c.395.838 1.25 2.12 2.452 1.66-1.202.475.222 2.532-.854 3.592l.427-.427c.712 3.164 2.768 4.746 4.287 7.12 2.357-.38 1.74 2.214 3.797 2.451 1.582-1.281.538-.095 1.899.665-.744-.38-1.092 1.028-.934 1.582.43-.155.9-.155 1.329 0-.253.712-.174 3.164 1.266 2.72.11 1.093-.617.27-1.045.396-.537.95 1.076 0 .744.68a.679.679 0 01-.301.127 10.77 10.77 0 011.582 3.164c1.583-1.044 1.393.68 2.31.807-.633.19-.174 1.06-.269 1.582.257 0 .51-.054.744-.158l1.076-.601.632-.348.507-.253a6.64 6.64 0 011.455-.538c.131-.018.264-.018.396 0 0 0-.396 0-1.298-1.06l.412.459a7.376 7.376 0 01-.554-.65l-.364-.49-.49-.775a.57.57 0 01-.364-.205 2.647 2.647 0 01-.554-1.313c0 .996-1.313 1.186-2.215.759a6.154 6.154 0 01-2.483-2.247c-.665-.965-1.582-2.278-2.516-3.417a14.133 14.133 0 00-3.67-3.164c-.728.158-.348.981-1.171 1.424a4.757 4.757 0 01-1.345-.87c.127.775.475.221 0 .585l1.155.237c0 .143-.174.111-.269.38.38.095.934 0 1.218.396-.806 0-1.851.996-2.199 0 .19-.111.317 0 .57 0-.49-.554-.949 0-1.139-.68-.19-.68-.459-.238-.127-.776l-1.075-1.914c-1.915.617-1.788-1.471-1.931-1.803 1.029-.807 1.282.617 2.5 0V38.3l-.712.743-.585-.917.174-.095c-.364.206-.728.427-.68 0 0-.142.174-.411.3-.38l-.933-.095c1.044-.49-.269-.68.648-1.503-1.313-2.072-3.385-.917-3.702-3.607-.158.65-1.851.886-2.151.254a.721.721 0 01.099-.586.737.737 0 01.502-.316l-1.06-.174c.665-2.104-.949-2.025-1.582-3.623l.459-.3a2.103 2.103 0 01-2.088-.934l.917-.585a.709.709 0 000-.206l-11.074 15.266c.633.57 1.582-1.866 2.262-.854.475-1.06 0-1.898.364-2.942-.206 1.186.87 1.85.949.98 1.266 0 .728.364.696.665l.934-.364c.728.427-.427 1.487-.981 1.962 1.218-.791 1.582.364 2.278.933l-.554.3.902.713a2.042 2.042 0 012.626.854l-1.313 1.012c.19 1.013.554-.3.823-.443 1.281-.126.965.887.997 1.899 2.483-.522 1.661 3.797 4.065 2.658zm1.408 15.488h.238c.253.142.474.285-.238 0zm-2.594-6.866c1.139.506.332.68 0 .98-.285-1.09-1.028-1.25-1.266-2.262-.157.29-.354.556-.585.791-.19-.3-.174-.806.3-1.423.712-.348 1.076.364 1.187 1.06.111.696.158 1.313.364.854zm-5.047 15.266l.332-.205-.332.205zm8.954-.142a.998.998 0 00.902.269c-.364-.269-.648-.49-.854-.269h-.048zm5.553-15.235c.428-.601-.142-1.266-.553-1.677a8.1 8.1 0 00.553 1.677zm-9.492 5.774c-.443.095-1.36.412-.917 1.092.49-.38.712.728 1.265 0v.095a6.42 6.42 0 00-.427-1.186h.079zm14.238-15.234c.459-.428 1.108-.776 1.282-1.25v.095a.5.5 0 01.269-.46c-.142-.284-.285-.6-.554-.6-1.487 1.519-2.167 1.376-1.139 2.215h.142z" fill="#7B6255"/><path d="M355.53 56.732a4.53 4.53 0 000-.807v.807zM341.83 45.5c-.095 0 0 .458.206.917a.909.909 0 00-.206-.918zm-30.596 8.479l.379.127v-.918a3.557 3.557 0 00-2.942.538c1.408.19 1.44.98 2.531 1.788l.032-1.535zm-4.746 4.951c-.111.27-.428.966-.348 1.14l.585-.27-.237-.87zm8.637 12.435l-.585-1.186c-.649.174-.174 1.82.585 1.186zm3.228-11.469l-.871.126c0 .744.554 1.155 1.139.68-.775-.158.159-.427-.268-.806zm-.633 13.668c1.06-.743.933 1.314 1.835.507-.538.063-1.076-1.472-1.835-.507zm6.344-9.856c.458-1.123-.617-.648-.965-1.281.427.332.3 1.804.965 1.281zm3.211 10.094c-.11.87-1.028.775-1.835.364.348-.19.601-.57.997-.649a7.01 7.01 0 01-2.721.285c.482.503 1.012.959 1.582 1.36.522.443.981.87.791 1.392 1.218-.617 2.31-1.93 1.186-2.752zm-1.993-9.398c-.206-.537 0-1.344-.428-1.582-.3.538-.664 1.393 0 1.582l-.791.697c.064.996.554-1.219 1.219-.697zm8.796 9.746a8.876 8.876 0 01-.917 0 5.607 5.607 0 01-2.516 1.787 5.819 5.819 0 00-2.262 1.409 8.333 8.333 0 003.638-1.203 5.374 5.374 0 002.057-1.993zm-7.847-7.088l.57-1.313c-.348-.332-.143.459-.427.728 0-.253-.206-.459-.443-.269.68.063-.427 1.092.3.854zm1.487-1.282a1.174 1.174 0 000-.616v-.11a.258.258 0 010-.112v-.3 1.139z" fill="#7B6255"/><path d="M328.209 66.667l.126.253a3.62 3.62 0 00-.807-1.946c.178.214.322.454.427.712a3.7 3.7 0 01.254.98zm4.24-17.102c-.586.253-.443 1.582-.238.775.538-.174.127-1.803.238-.775zm-6.661 10.062c0-.27-.237-.538-.633-.744a5.669 5.669 0 00-1.265-.395c.632.284 1.265 1.63 1.898 1.139zm-2.151-1.187h.253a.38.38 0 00-.253 0zm-21.213-9.397s-.096 0-.16.112l.16-.112zm.552-.19a1.137 1.137 0 001.582-.253h-1.06c-.387.01-.763.136-1.076.364.095 0 .158.126.221.158.064.032.206.08.333-.269zm-1.488-5.363c.054.187.096.377.127.57v.253a4.763 4.763 0 00-.127-.823zm28.477 25.882c.554.522 1.028.411 1.123-.49-.743-.238-.443.411-1.123.49zm2.04-.412l-.031.46.269.79-.238-1.25zm5.269 2.485a.822.822 0 01-.443.332c.396-.08.712-.159.443-.332zm-1.012.015l-.143.46c.17-.055.345-.092.522-.112a.35.35 0 01-.35-.207.327.327 0 01-.029-.14zm3.037.285a14.95 14.95 0 01-1.203-1.44c-1.36.57 1.44.823 0 2.168.459-.222.823-.475 1.203-.728zm4.951-.807c.696 0 1.582-.617 2.373-1.202.791-.585 1.329-1.044 2.12-.554 1.724-1.487 1.012-1.946.554-2.373-.459-.427-.823-.87.569-2.436-1.74.95-1.756 1.74-1.772 2.69-.015.948-.079 1.882-2.23 2.198 1.123.111.901.412.269.776-.365.19-.74.36-1.124.506a2.96 2.96 0 00-.759.395zm-1.154-2.531c0 .839 1.503.617 1.977-.142-.601.11-1.55-.823-1.977.142zm8.495-1.962c.474-.142.933-.332 1.408-.522l-.127-.617c-.404.405-.832.785-1.281 1.14zm3.575-4.018c.032.59.032 1.182 0 1.772.032-.585 1.171-2.5 0-1.772zm2.8-8.891a1.584 1.584 0 00-1.091-1.582c-.491 0-.681.49-.222 2.183v-.807c.332.127.728-2.04 1.313.206zm-10.093-9.682c.301.332.87.474 1.108.079l-1.203-.49.095.41zm-3.385 4.018c-.617 1.234.854.649 1.123 1.487-.459-.775-.269-.838-1.123-1.487zm3.559-6.344c.601-.19.759.412.933.68.412-.648-.348-1.075-.933-.68zm-1.756-.933c0-.664.554-.506.554-.98-.285-1.013-1.06-1.583-1.899-1.267a4.297 4.297 0 01-1.582 2.247c1.345.474 3.449-.918 2.753.933l2.357-.996c-.601-.981-1.693.6-2.183.063zm-.791 5.078V44.63c-.38.649-.87.396-1.313.332-.981 1.392.933.507 1.313.712zm-5.79-8.923l-1.472-.569.348.364 1.124.206zm-.491-1.012l.238-.411-1.472.047 1.234.364zm-1.012-1.392l.111.174.996.174-1.107-.348zm-2.547-2.056l-.127.759c.427 0 .649 1.139 1.108.3a.967.967 0 01-.981-1.06zm-17.339 10.852a1.583 1.583 0 00.538-1.187l-.854.918c.111-.016.364-.016.316.269zm-.554-2.452l-1.455.854c.901.649 1.502-.269 2.483 0-.19-.57-1.123 0-1.439-.49l.411-.364zm16.912-.791c-.649.601-.396.664-1.345.585a8.434 8.434 0 012.674 1.677c.205-.554 1.582-.728.996-.838l-1.329-.443.538-.317c-.253-1.123-1.107.348-1.534-.664zm2.737-6.329a1.578 1.578 0 00.427-1.139c-1.012-.031-.221 1.156-.427 1.14zm-45.769 18.067c1.124-.126.364 0 .238 0h-.238zm.238-.079h.16c-.176-.016-.208 0-.16 0zm.791-.268c.886 0-.332.126 1.028 0 .791-.064.443-.016-1.028 0zm-.901.126l.743-.047-1.17.015.427.032zm-.681.079l.269-.031-.759-.048.49.08z" fill="#7B6255"/><path d="M293.182 51.179h.206-2.057c0 .095 2.12 0 1.788.095a8.652 8.652 0 011.503 0l-1.44-.095zm-4.35-8.099l.112.095c-.112-.112-.192-.192-.112-.096zm.68-1.947a.93.93 0 00.253.19l-.253-.348v.158zm.633 4.746l-.333-.19c.175.063.301.19.333.19zm9.698-.475l.205.396-.174-.364-.031-.032zm-10.236-7.323a.473.473 0 000-.175s-.096.063 0 .175zm.239 8.258l-.144-.08.112.096.032-.016zm-2.137-6.424c.096 0 .176.112.176.096a.46.46 0 00-.176-.096zm7.166 11.279h-.126c-.127 0-.253-.126.126 0zm-.126-.142c.142.063.173.079 0 0zm0 .095l.791.253s.221 0-.411-.158l-.269-.095c.443.158-.317-.127-.38-.158l-.475-.174h-.221c-.396-.19.474.174.965.332zm-5.647-7.782c-.272-.272-.16-.112 0 0zm.743 1.47c-.049-.064 0 0 0 0zm-1.756 1.329h.08c-.24-.08-.16-.064-.08 0zm1.882-1.345s.067.1 0 0zm16.943 4.778c0 .19-.142-.333-.221-.49.395 1.328.094 0 .427 1.202a2.01 2.01 0 000-.396l-.443-1.218c.095.49.142.348.237.902zm-5.521-1.93v-.095c.285.522.364.68.538.949-.38-.823-1.06-2.01-1.455-2.927 0 0 0 .095 0 0 .253.68.617 1.44.917 2.073zm-1.06-2.104l-.158-.285-.095-.127a6.4 6.4 0 00.253.411zm5.774 3.734v-.112c.032.24.032.224 0 .112zm-6.945 2.388l.222.348a2.276 2.276 0 00-.222-.348zm1.11-4.887l-.128-.16.128.16zm-3.499-12.31c.586 1.36 0-.11.38.633l-.285-.728c-.142-.205-.079.048-.095.095zm1.377-.965l.112.192a.963.963 0 00-.112-.192z" fill="#7B6255"/><path d="M299.811 45.104h-.174l.205.3c-.316-.664.38.475-.031-.3z" fill="#7B6255"/><path d="M295.571 34.109l-.411-.807c.648 1.803-.807-.538.253 1.946-1.677-2.706 1.154 2.61-.348.19l.205.395c-.917-.127-2.484-1.155-2.341.538l-.332-.538c-1.582-.316-1.867 1.44-3.164 1.709.253.538 1.107 1.582 1.439 2.262 0 0-.095.095-.538-.538a12.82 12.82 0 00-.775-1.186c0 .142-.728-.491-.269.348l.665.759c.221.364 0 .174-.079.158-.285-.427-.981-1.281-1.092-1.503 1.281 2.168-.791-.76-.411.206 1.234 1.74 2.04 3.322 2.847 4.62l-.411-.38c.111 0-.965-1.218-.775-1.234-.491-.412 0 .395-.333.205.326.37.627.762.902 1.171-.253-.174-.933-.997-1.076-1.028l-.348-.57c-.553-.585 0 .27.111.411-.585-.68-.807-.696-1.439-1.487.68 1.029.205.538.601 1.219.46.447.873.94 1.234 1.47l-.111-.379c-.554-.3 0-.158-1.044-1.313.538.459 1.582 2.01 1.582 1.709.348.727-.143.237.554 1.313-.111-.3.632.76.996 1.06 0 .142-.379-.38-1.076-1.076 0 .095-.632-.522 0 .364-.411-.253-.759-.87-1.234-1.266-.664-.822 1.171.68-1.091-1.788 0-.094-.728-1.123-.586-1.154-.363-.254-1.218-.981-.822-.301l1.265 1.408c0 .095.791 1.06.633.98-.348-.426-.933-.964-.886-.79.148.103.281.225.396.364 0 .205.854 1.155.981 1.582a17.3 17.3 0 011.471 1.186c.87.997.079.206.142.364a3.048 3.048 0 00-.332-.348l.396.506c-.507-.316-1.313-1.408-1.851-1.772-.839-.727.332.538-.159.143l.254.221h-.095c.079.19 0 .19.617.902-.317-.316 0 .142.237.38.237.237 1.028 1.186-.174.142a2.792 2.792 0 01-1.013-.696l-.411-.142-.949-.87a10.29 10.29 0 001.582 1.819c-.649-.411-.332.158 0 .522l.554.364c-.111 0 .427.474.379.538-.047.063.159.095 0 0h-.095c-.11-.08-.079-.095 0 0l-.348-.253c-1.139-.76.522.6.079.395 0 0-.094-.11-.079-.11-.3-.159-1.835-1.171-.949-.491-.126 0 0 .08.253.269l-.19-.08.19.08c.285.237.649.522.412.364h-.269c-.174-.08 0 0 0 .174l-.459-.27c0 .096-.237-.078-.348-.173-1.693-.807.617.79-.886.174.743.49 1.139.601 1.582.854.443.253 1.028.791 1.44 1.076-1.108-.554-2.231-.775-3.797-1.582-.222.142 1.012.427 1.582.807.482.128.949.308 1.392.538.854.443 1.044.68.775.6l-1.202-.632a31.296 31.296 0 003.433 1.867c-.522-.158-1.582-.712-2.753-1.203l.253.254-.933-.412c.205.19 1.076.57.664.522-.854-.443-.949-.158-2.12-.743-.348 0 1.582.664.206.237 1.012.427.538.11.87.206 1.471.538.649.395 1.013.617a6.408 6.408 0 00-1.44-.443c.585.221 1.012.427.285.253.965.3.158.174.079.221a6.127 6.127 0 011.787.412c.38.158.586.237.428.285l.474.079c1.44.458-1.076-.19-.648 0l-1.298-.443 1.582.617-1.487-.206c.728.142-.079.095.918.285a8.442 8.442 0 01-1.93-.49c-.696.094 1.661.426.095.363l-.934-.206s.443.27 0 .222h.206a27.34 27.34 0 003.496.617h.143c.395.127 1.835.253 1.091.237a14.596 14.596 0 01-1.977-.174c-.143 0 2.325.206 2.12.237h1.234-.206l-1.013-.094c.455.005.91.036 1.361.094.332 0-2.104-.205-2.025-.284h.395c-.537-.111-.601-.174-1.882-.412 1.36.19-.506-.221.3-.126 2.943.57-.221.126 1.393.459.617 0 1.408.221 2.088.316-.427 0-.854-.158-1.266-.269.396 0 1.867.332.791.11-.332-.094-1.582-.347-1.123-.3l.933.222c.269 0-.664-.174-.917-.27.269 0 1.186.301 1.582.365-1.123-.3.269 0 .206 0-1.582-.428-2.184-.807-3.655-1.155l-1.044-.522c.854.253 2.231.854 3.607 1.265h-.079c2.009.649-1.266-.57.981.19.079 0-.19-.095.791.27l-1.756-.713c.427.143 1.376.538 1.692.665-.11 0 0 0 0 0l.586.269c.965.411.601.253.095 0-.507-.254-.38-.19-.364-.19l.649.3-.633-.3h-.158c-.285-.143-1.298-.617-1.757-.791.622.15 1.219.39 1.772.712l1.139.617-1.297-.744.918.506.332.19a8.923 8.923 0 01-1.202-.775h-.095c-.855-.538-1.82-1.17-1.124-.76.697.412 1.361.792 1.677 1.06 1.582.997-1.139-.743-.553-.41l.648.379.791.554h-.11l.49.332.221.158.222.127.301.19c.11 0 .268.158.11 0l-.11-.08-1.155-.98-.57-.443.222.158-.633-.522 1.582 1.218-1.171-.95c-.838-.695-1.186-.996-.854-.774.601.506.569.506 1.06.885a9.005 9.005 0 01-.775-.68c.395.316.506.364 1.091.87.143.143 0 0-.142-.095-.143-.095.538.428 1.012.87l-.158-.158 1.092.95c-.396-.364-1.693-1.583-2.041-1.994l1.202 1.123c.396.333-1.329-1.36-1.376-1.503a3.8 3.8 0 01.38.428 6.77 6.77 0 011.914 1.408l-1.171-1.345.823.854c.854.76.174-.174 0-.696 0-.127.791.95 1.123 1.329.19.11-1.012-1.582-1.155-1.898.317.442 1.218 1.692 1.297 1.724-.3-.411-.775-1.076-.569-.838l.316.458c.491.633 0 0 .333.238a13.53 13.53 0 00-1.788-3.117 17.65 17.65 0 011.345 1.867c-.443-.49.142.285.474.807-.253-.443-.395-.728.364.3 0-.095 0 0-.395-.79.221.363-.19-.175-.491-.665.285.332.111-.143 1.013 1.17 0-.41.474-.3.68-.522-.396-.712-.206-.237-.491-.743-.522-.934.348.443 0-.3l.443.743a14.09 14.09 0 00-.996-2.073c.281.377.535.774.759 1.187 0-.158 2.326 3.56 1.867 2.784l-2.215-3.48c-.206-.348 0-.159-.174-.396.221.348.475.712.68.981l.333.475c.569.87.395.712.348.712.917 1.487.68.901 1.487 2.278-.095-.285-.475-.76-.791-1.33l.253.286-.348-.475c-.222-.459-.902-1.582-.332-.807l-.823-1.487c.712 1.17.174.19.38.443l.427.76s.158.126.443.537c.585 1.06-.19-.221.379.76l.253.332c-.395-.68-.68-1.218-.949-1.582-.696-1.266-1.297-2.326-1.107-2.294.728 1.123.538 1.044 1.218 2.167.395.427-1.582-3.069-1.44-2.974.364.427-.253-.633-.19-.775.412.807.538.807.981 1.582l.428.838c-.111-.253.094 0 .411.617a5.064 5.064 0 01-.665-1.582l-.522-.901c-.11-.333-.364-.95-.174-.744-.079-.348-.538-1.14-1.012-2.183.49.807 1.012 1.787 1.582 2.8-.285-.459-.174-.158-.364-.427.316.854 1.313 2.816.965 2.436 1.202 2.23-.079-.3.411.459l.095.19c.242.623.533 1.226.87 1.803 0-.253-1.186-2.23-.585-1.313-.285-.648.712 1.076.823 1.218-.427-.854-1.393-2.642-1.108-2.341l.633 1.266c.111 0-.949-1.851-.823-1.835.127.015-.617-1.25-.696-1.25-.332-.68-.316-.855 0-.522-.079-.206-.221-.428-.443-.855-.522-.838.348.902-.364-.332l.681 1.376a18.694 18.694 0 01-1.155-2.088s.095.253 0 0c-1.092-2.025.459.68-.427-1.044v.158c-.728-1.297-.522-1.202-.412-1.139.405.545.764 1.122 1.076 1.725l.127.458c.443.744-.127-.506 0-.49l.174.285-.143-.253c.089.12.168.247.238.38 0 0-.174-.586 0-.301l-.443-.855.253.475a4.213 4.213 0 01-.696-1.17c-.206-.634.664 1.012 1.06 1.74.664 1.328-.095 0 .095.506.696 1.297.158.095.68.917.696 1.44-.095 0 .554 1.36.189.207-.317-.822 0-.49.316.665.284.76.727 1.583l.253.38c0 .142.918 1.787 1.029 2.167.111.38-.554-1.187 0-.317-.317-.617-.949-1.724-1.171-2.31l.269.396c.364.68.712 1.582 1.044 2.12l-.19-.522c-.221-.427-.364-.633-.632-1.218.268.443-.776-1.693-1.045-2.342 0 0 .127 0 .38.585-.538-1.313-.395-1.328-.886-2.594.299.733.653 1.441 1.06 2.12.311.835.675 1.649 1.092 2.436 0-.158-.681-1.582-.918-2.009.332.522-.395-.965.095-.079.253.443.617 1.345.87 1.85.095 0-.759-1.581-.538-1.375l.222.49c.174.269 0-.395-.38-1.076.854 1.756 0-.237.823 1.487a14.266 14.266 0 00-.712-1.582c-.317-.79 0-.19.205.08.206.268.174.537 0 .268l.57 1.203c.506.806-1.155-2.769-.57-1.772.222.648.396.917.744 1.788-.111-.317.127 0-.348-.918.135.149.252.313.348.49-.158-.474-.269-.822-.601-1.582.312.46.582.947.807 1.456-.253-.934.506.522.253-.475v-.079c.205.19-.712-1.582-.586-1.582.238.605.518 1.192.839 1.756.443.712-.19-1.186.332-.221.101.241.186.49.253.743.285.427.238.095.348.143v.19c.601 1.17.159-.333.174-.76 0 .19.253.775.333.98.079.207.379.507-.08-.917.617 1.487-.094-.474.523.95.042.101.074.207.094.316.222.49.206.316.317.49-.222-1.012-.854-3.005-.522-2.468.712 2.104.095.554.648 2.215-.095-.38-.221-.807 0-.332l.396 1.297c.206.538-.601-2.23-.538-2.025-.127-.411-.206-.617-.221-.553-.38-1.298.11-.159 0-.697a6.811 6.811 0 01-.523-1.423c.238.427-.363-1.582-.553-2.468.395.917.474 1.787.965 3.259.19.522.585 1.692.728 2.278.174.3-.174-.981-.19-1.33l.126.428c0-.206-.411-2.072-.079-1.25l-.19-.459a4.475 4.475 0 00-.19-1.012c.206.696.443 1.297.586 1.883-.601-2.247-.158-1.424-.696-3.544.174.538.411 1.455.538 1.977-.111-.19-.253-.617 0 .285.189.316.318.665.379 1.028-.332-1.408-.348-1.993-.712-3.4.265.73.492 1.475.681 2.23 0-.776-1.06-3.56-.855-3.607.153.641.338 1.275.554 1.898v.19c.886 2.99-.506-2.152-.364-2.072.443 1.582.238 1.186.601 2.34 0-.442-.585-2.878-.363-2.372l.174.696c0-.142.221.158.253 0v.364c.269.601-.143-.855.221.269l-.174-.807c-.174-.554-.474-1.345-.3-.38-.159-.965-.602-2.056-.918-3.464l.127.57a11.559 11.559 0 00-1.583-3.45c.317 1.709-.427-.6-.268.602.506 1.898 0 .38 0 .806a8.358 8.358 0 00-.523-1.693c.071.286.118.577.143.87-.206-.648-.839-2.12-.522-.806a3.283 3.283 0 01-.253-1.013c-.317-.965.158.776 0 .127l-.079-.3c-.111.126-.348-.349-.554-.539.554 1.851.079.728.221 1.424a3.451 3.451 0 00-.443-1.012l.364 1.392c.301 1.187-.364-.791-.253-.127l.127.317c.11.585-.427-.475-.823-1.44.601 3.797-1.677-1.661-2.041-.427.158.554.38.902.649 1.724 0 .238 0 .159-.079.206.237.475 0-.127.19.38l-.111-.554.174.443c0-.174-.127-.554 0-.475.126.49.617 1.835.348 1.36a1.601 1.601 0 01-.095-.379c-.111 0 .142.57 0 .238-.142-.333 0 .126-.221-.46l-.475-.632c.538 1.582-.158.142-.253 0-.459-1.202 0-.411-.443-1.582l-.412-.839.364.95-.19-.222-.079-.174c.143.364.285.744.127.427-.158-.316-.174-.395-.19-.443l.142.554c-.185-.48-.396-.95-.632-1.408-.459-.475.332 1.582-.507.19.261.496.442 1.03.538 1.582a5.3 5.3 0 01-.427-.965l.158.617c-.854-1.724-.474-.538-.886-1.076l-.205-.506c.205.617.348 1.107.19.965l-.428-.997c-.411-.648.839 2.104.443 1.582.475 1.06.791 1.582 1.25 2.563-.506-1.06-.696-1.17-.316-.411.079.474-.095 0-.222-.253l.238.68a14.704 14.704 0 01-.902-1.993c.443 1.17 0 .395-.158.253l-.19-.49-.19-.143c.316.854.237.965 0 .585l-.585-1.424c-.396-.68.19.49.284.744.222.728-.253-.206-.664-.965.047 1.503-1.898-2.104-1.044.032zm-6.85 12.419l.205.11c.19.19.38.348-.205-.11zm1.044-.665c.379.475-.158 0-.491-.269.412.158.079-.206.538 0l-.743-.617c.353.184.678.419.965.696 1.06 1.076-.981-.348-.269.206v-.016zm5.442 5.363l-.301-.142.301.142zm-1.139-.76l.569.301-.569-.3zm1.803.697c.522.38.364.253.269.142a1.573 1.573 0 00-.3-.142h.031zm2.943-3.164c.199.404.432.79.696 1.155-.285-.475.253.316-.174-.412l-.522-.743zm-.253-5.838c.285.554.585 1.17.823 1.582.073.159.158.312.253.459 0 .11.158.221.095 0-.965-1.82-1.076-2.12-1.171-2.057v.016z" fill="#7B6255"/><path d="M299.684 44.202a4.214 4.214 0 00-.3-.475c.074.174.175.334.3.475zm-11.406 6.55h-.823c.85.204 1.72.31 2.595.316-.965-.142-.475-.206-.744-.364l-1.028.048zm-.744-1.472l.649.253c.554 0 .506 0-.222-.253.38.206-.395-.079-.427 0zm-.379-1.25c-1.107-.363-.19.095-.474.095.031-.095 1.249.254.474-.095zm7.673 2.927c.775.411.711.38.537.3l-.727-.379.838.443.934.475-.333-.174-1.249-.665zm-7.705-3.211c-.348 0-1.139-.317-1.107-.174.569.205 1.408.506 1.328.348l.918.427c.744.206-1.266-.475-1.139-.601zm9.746 4.287l-.348-.206.221.127h-.127l.254.079zm-7.863-3.844l-1.282-.633c-.221 0 .443.206.728.395h-.095c-.142-.142 1.044.538.649.238zm-1.25-1.013l-.475-.427-1.439-.633c.395.427.791.427 1.914 1.06zm.918.284l.253.112a42.503 42.503 0 01-1.74-1.234c.469.408.965.783 1.487 1.123z" fill="#7B6255"/><path d="M296.979 51.812c-.459-.412-1.06-.886-.538-.46a6.82 6.82 0 11.538.46zm-9.049-7.152c.396.238-.174-.458-.427-.79.221.269-.174.269.427.79zm-.475-.933l.112.144-.112-.144zm.476-4.76l-.096-.144.096.144zm.094.331c-.174-.127 0 .237.379.759a7.057 7.057 0 00-.537-1.092c.063.08-.317-.253.158.333zm.807-.238c.099.248.238.478.411.68.174.206-.142-.363-.411-.68z" fill="#7B6255"/><path d="M301.662 51.986c.206.269.095 0-.38-.712a7.1 7.1 0 00.38.712zm-.443-.902l.237.38.38.569-.617-.95zm.949.996l.19.333a3.544 3.544 0 00-.19-.333z" fill="#7B6255"/><path d="M302.168 52.207l.237.411v-.174s-.126 0-.237-.237z" fill="#7B6255"/><path d="M302.247 52.207l-.727-1.155c.3.601.395.586 1.091 1.851l-.364-.696zm-.078-.427c.253.364-.76-1.582 0-.158-.301-.791-1.361-2.31-1.582-2.927-.538-.649 1.471 2.737.917 2.025.272.319.496.676.665 1.06z" fill="#7B6255"/><path d="M300.808 49.438c.411.697.49.728.237.254-.063-.064-.649-1.029-.237-.254zm1.234 1.582l.348.523-.253-.46-.095-.063zm.284.206l.427.839a4.548 4.548 0 00-.427-.839zm.744.981c.19.253-.823-1.582-.664-1.202.243.388.465.79.664 1.202zm-1.186-3.275s0 .237.269.617l-.143-.411-.126-.206zm-2.453-4.635c-.649-1.155 0 .126-.285-.222.174.222.253.333.285.222zm3.402 6.328c.221.49 0 .19 0 .127.348.585.285.395 0-.127zm-.111-.522c.238.475.332.649.507.965.174.316.316.427 0-.237-.317-.665-.981-1.836-1.266-2.437.142.443 1.234 2.627.332.981l.997 2.073c.237.3-.68-1.456-.57-1.345zm-2.136-3.797l.396.665a7.85 7.85 0 01-.475-1.013c-.822-1.487.079.253.079.348zm2.057 2.705l-.08-.395-.079-.08.159.475zm.301.443l.206.443-.333-.838.127.395zm.332.475l-.047-.063.142.395-.095-.332zm.3.221l-.316-.633c0 .175-.332-.522.095.349-.127-.301-.032-.222.221.284zm-6.897-16.61c.154.406.333.802.538 1.186l-.459-1.108s.047.174-.079-.079zm.964 1.724l-.474-1.298c-.206-.142.237.839.221 1.076.222.38-.126-.538.079-.221l.174.443zm2.263.174c.183.407.326.83.427 1.265-.095-.554 0-.395.111-.57-.221-.506-.49-1.44-.443-1.202v.538l-.19-.57c-.269-.585.364.95.095.538zm7.278 7.467c.095.411.205.79.316 1.154a8.241 8.241 0 00-.316-1.154zm-160.687-.602c-.19-.537-.222-.616-.206-.553.016.063-.111.364-.158.474.125.006.248.033.364.08zm-.364-.079a1.36 1.36 0 00-.38.174.333.333 0 00.38-.174zm-.142 2.563c-.412.285-.586 0-.776-.174a2.293 2.293 0 00-1.202-.76c-.127 1.013.253 1.583.68 1.71.427.126.855-.127 1.298-.776zm.125-.997l-.569.507a2.73 2.73 0 00.981-.68 1.048 1.048 0 01-.412.174zm.444-.537l-.206.174c.25-.074.468-.23.617-.443a.677.677 0 01-.411.269zm1.597 2.072a2.725 2.725 0 01-1.028.554.98.98 0 01-.142-1.14c.11-.29.11-.61 0-.9-.238 0-.412 2.15-1.123 1.581-.175.443.158.617.601.744.443.126 1.139.19 1.107.949a1.22 1.22 0 00.934-.222c.094-.11 0-.237-.111-.38a.916.916 0 01-.238-1.186zm-8.257-1.581v-.112c-.032.128-.112.208 0 .112zm-1.756-.222a1.25 1.25 0 00.174-.253l-.269.3.095-.047zm4.35-1.187l-.222.3c.111-.157.238-.268.222-.3zm-2.658-10.141l.316-.3-.3.285-.016.015zm-4.444 11.913a.224.224 0 00-.16 0s.064.08.16 0zm7.544-1.503l-.094.126.094-.11v-.016zm-5.868 2.707c0-.096.096-.16 0-.176-.096-.016-.016.144 0 .176zm12.402-5.919c0-.11 0 0-.142 0-.143 0-.158.27.142 0zm-.474-.232c.116-.116.133-.15 0 0z" fill="#7B6255"/><path d="M149.329 39.44c.379-.459 1.708-1.835.205-.364l-.189.206c.316-.364-.285.19-.364.221l-.269.364a.847.847 0 01-.095.222c-.348.348.364-.348.712-.649zm-9.159 4.034c-.272.288-.112.16 0 0zm1.407-.757v-.08c0-.081-.081.08 0 .08zm.807 1.47v-.08c-.112.192-.096.192 0 .08zm-.823-1.644s.101-.084 0 0zm-1.883-19.825c.143-.11-.221.3-.316.443 1.012-.95 0-.127.854-.95 0 0-.174.112-.332.238l-.87.965c.395-.332.205-.348.664-.696zm1.756 7.246v.095a7.64 7.64 0 00.728-.839c-.665.633-1.583 1.661-2.326 2.326 0 0 .079 0 0 0 .475-.522 1.092-1.108 1.598-1.582zm-1.661 1.676l-.221.238-.079.127a4.11 4.11 0 00.3-.364zm.285-7.75V24c.096-.192.096-.192 0-.112zm7.071 8.352l.316-.27a1.773 1.773 0 00-.316.27zm-6.025-.807l-.128.176.128-.176zm-10.618 7.214c1.044-1.044-.11 0 .459-.585l-.585.522c-.143.205.063.063.126.063z" fill="#7B6255"/><path d="M139.951 22.37l-.099.1.033-.017.066-.083zm-10.794 15.442l.128-.16-.128.16zm10.378-5.507l.095.19.206-.3c-.522.506.348-.554-.301.11z" fill="#7B6255"/><path d="M130.471 39.851l-.617.665c1.487-1.25-.269.886 1.708-.95-2.025 2.453 2.089-1.914.269.27l.317-.333c.142.886-.475 2.595 1.075 1.978l-.443.443c0 1.582 1.693 1.313 2.12 2.404.475-.348 1.408-1.392 1.962-1.835 0 0 .095 0-.443.633a12.7 12.7 0 00-1.028.981c.142 0-.38.775.364.174l.632-.79c.333-.27.175 0 .175 0-.38.347-1.108 1.17-1.298 1.328 1.899-1.582-.617.902.206.316 1.582-1.503 2.911-2.594 4.082-3.575l-.333.459c0-.095-1.075 1.107-1.107.949-.348.522.364 0 .206.253a12.59 12.59 0 011.044-1.044c-.158.253-.902 1.028-.918 1.155l-.522.427c-.522.617.253-.11.38-.174-.617.649-.649.854-1.361 1.582.918-.807.475-.285 1.092-.76a12.47 12.47 0 011.345-1.376l-.333.174c-.284.554-.158 0-1.202 1.171.427-.57 1.819-1.724 1.582-1.582.664-.443.221.08 1.218-.712-.269.127.712-.696.997-1.076.126 0-.348.412-.997 1.14.079 0-.506.664.317-.096-.238.412-.807.807-1.187 1.298-.775.712.664-1.155-1.582 1.265-.079 0-1.012.855-1.028.744-.253.364-.95 1.234-.348.743l1.329-1.344s.98-.902.901-.744c-.395.38-.917.981-.775.918.142-.064.127-.174.348-.412.222-.237 1.092-.949 1.424-1.107.269-.427.649-.839 1.155-1.503.933-.933.174-.095.332-.158a3.11 3.11 0 00-.332.332l.49-.411c-.316.506-1.344 1.36-1.724 1.898-.712.854.506-.38.111.11l.237-.236v.079c.174-.095.158 0 .87-.665-.316.333.127 0 .364-.253s1.186-1.028.111.158c-.195.364-.452.69-.76.965l-.174.396-.901.902c.65-.48 1.264-1.01 1.835-1.582-.475.617.079.284.443 0l.316-.412c0 .111.506-.38.554-.332.047.047.126-.158 0 0a.753.753 0 010 .095c-.095 0-.095.095 0 0l-.285.316c-.902 1.029.633-.474.348-.079 0 0-.111.095-.111.08-.205.268-1.424 1.581-.633.854-.094.095 0 0 .285-.238l-.19.095.111-.174c.269-.253.617-.57.427-.364v.254c-.11.142 0 0 .174 0l-.364.41c.095 0-.126.19-.237.301-1.186 1.44.823-.522-.174.744.649-.617.886-.95 1.218-1.297.333-.348.981-.839 1.361-1.155a38.568 38.568 0 01-2.658 3.164c0 .19.728-.807 1.202-1.202.295-.407.618-.793.965-1.155.649-.696.934-.807.776-.586l-.981.965c.427-.269 1.835-1.756 2.847-2.673-.3.459-1.202 1.297-2.04 2.199l.316-.174-.712.727c.237-.142.918-.822.696-.458-.712.648-.554.79-1.582 1.582-.206.285 1.187-1.123.269-.127.775-.76.332-.427.554-.68 1.076-1.155.617-.475.949-.712-.37.337-.714.702-1.028 1.092.443-.428.807-.744.316-.175.712-.727.206-.079.19 0a10.7 10.7 0 011.218-1.376c.317-.269.491-.38.443-.237l.301-.38c1.123-.996-.696.855-.317.554-.49.395-.49.38-1.044.886.419-.386.875-.73 1.361-1.029l-.586.46-.253.173h.127l.269-.142h-.174l-.222.142c.158-.117.335-.208.522-.269a.931.931 0 01.222-.079h.822c.331.081.643.227.918.427.285.238.364.475 0 .46-.364-.017-.633-.317-.902-.507a2.488 2.488 0 00-.427-.253l-.221-.095h.126c.234.115.457.253.665.411.458.348.806.902.3 1.123a1.013 1.013 0 011.013 1.298c.284-.154.549-.34.791-.554.206-.198.386-.422.538-.664.142-.301.079-.538-.364-.602l-.253.08a9.18 9.18 0 01-.871-.633c.095-.38.981 0 1.408-.08.222-.537-.348-.522-.885-.506-.538.016-1.155 0-1.155-.142l.395-.127c-.569-.079-.712-.19-1.882.348.617-.284.458-.284.268-.205-.189.079-.411.237-.094 0 1.218-.886 1.234-.775 1.107-.554-.127.222-.459.427.332.237a3.055 3.055 0 011.82-.3 2.375 2.375 0 00-1.582-.38c.348-.221 1.487-1.218.506-.712v.08c-.412 0-1.361.79-1.123.426.237-.363.617-.443.775-.57.158-.126-.601.333-.855.46.111-.27.965-.76 1.139-1.06-.965.648 0-.396-.142-.443-1.171 1.234-1.803 1.487-2.753 2.658l-.917.727c.585-.664 1.74-1.582 2.705-2.705v.142c1.471-1.582-1.139.807.443-.949 0-.11-.174.11.475-.727l-1.313 1.376c.377-.474.778-.928 1.202-1.36-.111 0-.095 0 0-.08.139-.163.298-.306.475-.427.696-.791.411-.522 0-.127-.412.396-.333.254-.349.206l.523-.474a4.312 4.312 0 00-.538.458l-.159.095c-.158.095-.965 1.06-1.265 1.44a6.134 6.134 0 011.044-1.582c.38-.396.902-.839.933-.902.032-.063-.569.396-1.139.981.317-.348.649-.728.696-.807a2.04 2.04 0 00.238-.3c-1.06 1.06-.633.443-1.124.901-.094.143 0 .159 0 .143-.727.68-1.582 1.471-1.028.87.554-.601 1.013-1.203 1.408-1.392 1.25-1.44-.981.933-.585.38l.459-.586c.775-.775.474-.317.743-.617h-.126c.601-.554.363 0 1.297-.854l.253-.586c-1.107.744-.316-.585-2.152.965l-.506.507.19-.206-.617.554a19.96 19.96 0 001.25-1.582c-.312.392-.645.767-.997 1.123-.775.775-1.107 1.107-.87.76.338-.312.655-.645.949-.998a4.55 4.55 0 01-.743.712c.262-.384.558-.744.886-1.075.158-.143 0 0-.095.158.287-.344.593-.671.917-.981l-.205.11c.411-.505.727-.711 1.012-1.028-.475.285-1.756 1.583-2.215 1.82l1.139-1.187c.301-.443-1.455 1.218-1.582 1.25.364-.364.253-.19.459-.348.131-.84.468-1.633.981-2.31l-1.297 1.218.759-.901c.57-1.044-.411-.396-1.012-.222-.143 0 .838-.933 1.154-1.329 0-.285-1.455 1.123-1.882 1.266a13.952 13.952 0 001.582-1.582c-.38.348-.949.933-.76.664l.396-.38c.522-.6 0-.094.127-.41-.159-.096-1.155.68-2.642 1.993 0-.238 1.344-1.36 1.582-1.582-.38.538.269-.174.727-.602-.395.317-.664.49.19-.443-.111 0-.095 0-.743.49.316-.284-.127.238-.554.618.253-.364-.206-.143.902-1.266-.491 0-.586-.6-.934-.854-.633.538-.19.269-.617.649-.822.696.332-.443-.332.11l.633-.6c0-.19-1.218.87-1.851 1.376.696-.697.49-.665.981-1.013-.158.08 2.863-3.164 2.199-2.531l-2.816 3.006c-.285.284-.174 0-.348.253.522-.617 1.139-1.345 1.123-1.377.712-.759.617-.537.633-.49 1.218-1.234.664-.902 1.819-2.01-.269.143-.617.665-1.107 1.077l.189-.333-.348.475c-.411.316-1.36 1.25-.759.475l-1.25 1.154c.949-.996.111-.237.301-.506l.633-.601c-.079 0 0-.206.379-.601.87-.839-.158.253.649-.554l.221-.348c-.537.554-.996.965-1.281 1.329-1.06.997-1.93 1.835-1.978 1.582.871-1.012.886-.775 1.772-1.74.253-.538-2.578 2.31-2.547 2.12.285-.49-.569.395-.727.348.422-.441.818-.906 1.186-1.392l.696-.633c-.237.158 0-.127.443-.586a4.306 4.306 0 01-1.408 1.045l-.712.759c-.3.19-.838.585-.712.348-.648.5-1.266 1.04-1.851 1.614.617-.712 1.408-1.503 2.215-2.31-.348.395-.095.221-.285.49.744-.538 2.358-2.04 2.12-1.582 1.82-1.772-.284.143.285-.553l.174-.159a9.615 9.615 0 001.582-1.329c-.253.127-1.819 1.772-1.139.918-.554.443.791-1.044.87-1.202-.696.648-2.12 2.104-1.946 1.724l1.029-.98c-.095-.127-1.582 1.439-1.582 1.297-.095.158-1.013.965-.965 1.06-.57.506-.744.537-.523.173-.158.143-.332.349-.664.697-.633.759.759-.586-.174.474l1.107-1.06a12.835 12.835 0 01-1.582 1.74s.222-.158 0 0c-1.582 1.582.507-.664-.886.712h.159c-1.013 1.076-1.013.839-.981.712.381-.567.816-1.096 1.297-1.582l.396-.253c.569-.664-.459.27-.475.19l.221-.253-.253.127c.086-.123.182-.24.285-.349 0-.079-.522.333-.316 0l-.665.696.38-.38a3.782 3.782 0 01-.886 1.03c-.554.395.728-.966 1.297-1.583 1.044-1.044 0 .095.459-.237.997-1.076 0-.19.617-.965 1.155-1.123.079.11 1.139-.934.111-.269-.696.538-.49.174.522-.522.648-.506 1.313-1.202l.269-.38c.19 0 1.376-1.44 1.74-1.582.411-.506-.981.886-.332.095a18.676 18.676 0 01-1.804 1.82l.269-.412c.506-.585 1.25-1.155 1.677-1.677l-.459.332c-.298.35-.615.682-.949.997.316-.411-1.345 1.266-1.898 1.725 0 0 0-.159.411-.57-1.092.918-1.171.76-2.199 1.582.58-.53 1.109-1.113 1.582-1.74a15.177 15.177 0 001.93-1.851 15.554 15.554 0 00-1.582 1.582c.348-.522-.775.696-.142-.095.332-.411 1.06-1.044 1.439-1.456 0-.126-1.297 1.282-1.139.95.14-.118.272-.245.396-.38.174-.269-.38.19-.902.712 1.313-1.455-.285 0 1.06-1.329-.475.253-.712.76-1.202 1.218-.491.459-.222 0 0-.253.221-.253.443-.364.269-.126l.901-.965c.522-.807-2.183 2.056-1.582 1.107.538-.427.712-.696 1.392-1.329-.237.222 0-.142-.727.633a2.6 2.6 0 01.284-.538c-.395.332-.696.538-1.328 1.139.293-.475.632-.92 1.012-1.329-.823.538.19-.76-.68-.174 0-.285-1.171 1.313-1.266 1.17a9.991 9.991 0 001.25-1.581c.427-.744-1.092.6-.475-.317.177-.194.373-.369.586-.522.253-.474 0-.332-.095-.474l.142-.143c.76-1.091-.474-.095-.902 0l.744-.712c.174-.348.206-.632-.87.38 1.012-1.25-.411.285.554-.95.07-.082.15-.156.237-.22.316-.428.158-.364.237-.554-.854.617-2.341 2.072-2.056 1.47 1.582-1.581.474-.3 1.692-1.581-.3.253-.632.554-.316.127l.965-.934c.364-.459-1.74 1.582-1.582 1.36-.301.301-.459.491-.38.475-.981.934-.237 0-.696.253-.251.44-.577.83-.965 1.155.222-.443-1.297 1.044-1.977 1.582.601-.807 1.36-1.265 2.42-2.389a86.734 86.734 0 011.582-1.74c.142-.316-.838.57-1.139.744l.301-.317c-.238 0-1.677 1.298-1.155.586l-.206.633a4.887 4.887 0 00-.807.648c.506-.522.902-1.06 1.345-1.455-1.582 1.582-1.218.775-2.8 2.31.364-.444 1.044-1.108 1.424-1.472-.079.206-.364.554.316-.079 0 0 .285-.49.664-.87-1.059.98-1.582 1.265-2.626 2.278a22.405 22.405 0 011.582-1.724c-.696.38-2.515 2.752-2.689 2.547.728-.918 1.186-1.045 1.345-1.456l.158-.11c2.072-2.31-1.582 1.582-1.582 1.36 1.155-1.218.902-.791 1.677-1.724-.38.221-2.168 1.977-1.883 1.502l.522-.506c-.158 0 0-.316-.174-.269.237-.253.206-.205.285-.253.332-.57-.649.57 0-.348l-.601.554c-.364.474-.855 1.139-.127.506-.728.633-1.408 1.582-2.436 2.626l.411-.411a13.22 13.22 0 00-2.088 3.164c1.329-1.123-.285.696.664 0 1.408-1.392.301-.269.681-.443a9.478 9.478 0 00-1.203 1.297 8.42 8.42 0 01.681-.57c-.443.507-1.424 1.788-.443.87a2.73 2.73 0 01-.744.713c-.68.76.601-.506.142 0l-.221.206c.158 0-.142.474-.222.743 1.361-1.376.617-.427 1.14-.87a5.328 5.328 0 00-.681.854l1.06-.98c.918-.823-.522.696 0 .284l.222-.253c.458-.38-.222.585-.902 1.392 3.164-2.262-.744 2.23.459 1.978.443-.396.664-.728 1.297-1.33.206-.11.158 0 .221 0 .317-.41-.126 0 .254-.316l-.443.317.332-.348c-.158.11-.459.364-.411.253.395-.316 1.408-1.329 1.075-.87-.085.09-.181.17-.284.237 0 .127.443-.364.221 0-.221.364.127 0-.301.396l-.411.68c1.266-1.155.222.095.127.237-.902.902-.364.19-1.282 1.06l-.601.728.728-.744-.032.317-.142.126c.285-.269.569-.553.348-.285-.103.124-.214.24-.332.349l.443-.349c-.776.728-.174.27-1.045 1.14-.253.6 1.377-.981.348.363.38-.443 1.393-1.344 1.282-1.139a5.69 5.69 0 01-.712.776l.506-.396c-1.265 1.44-.332.633-.68 1.202l-.38.38c.491-.411.886-.743.807-.538l-.759.76c-.459.617 1.582-1.582 1.234-.997.807-.823 1.17-1.313 1.93-2.104-.807.87-.839 1.076-.269.459.411-.27 0 .079-.158.284l.538-.458a13.846 13.846 0 01-1.582 1.582c.917-.855.363-.159.284 0l-.379.348v.237c.68-.601.806-.585.537-.174l-1.107 1.06c-.522.617.38-.364.585-.538.586-.459-.11.3-.68.95 1.171-1.076-1.566 1.977.127.426zm12.371 3.781l.143-.174c.221-.158.395-.332-.143.174zm-.348-.949c.491-.348 0 .143-.332.443.221-.364-.174 0 .111-.49-.206.237-.491.522-.649.712.207-.337.463-.64.759-.902 1.092-1.076-.474.902.111.269v-.032zm6.74-3.986l-.254.237.254-.237zm-1.345.6a4.34 4.34 0 00.411-.49c-.269.3-.506.554-.411.49zm.538-2.12c.427-.474.253-.379.11-.3a.24.24 0 00-.11.3zm-5.411-4.27c.359-.282.688-.6.981-.95-.411.364.222-.348-.38.237l-.601.712zm-5.932 1.47l1.265-1.265c.114-.139.236-.27.364-.396 0-.11.142-.237 0-.11-1.455 1.503-1.724 1.708-1.629 1.772z" fill="#7B6255"/><path d="M138.681 32.653l-.332.459a1.88 1.88 0 00.332-.459zm8.148 10.378l.176.096-.176-.096zm4.492.934c.285 0 1.013-.285 1.108-.507l-.554-.237a5.02 5.02 0 01-.554.744zm.254-7.025l-.301.46c.396-.365.981-1.14.301-.46zm-6.423 7.135l.158-.142-.379.364.221-.222zm6.312-7.419c-.87.87.317-.46-.506.364.253-.222-.348.522.506-.364zm-8.084 8.448c-.791.854 0 .158-.174.395-.048-.047.759-.98.174-.395zm5.331-6.313c.617-.632.601-.553.491-.38-.191.195-.392.38-.601.554.537-.427.443-.332.775-.585.416-.558.871-1.087 1.36-1.582a24.513 24.513 0 00-2.025 1.993zm-5.537 6.297c-.205.285-.743.886-.648.886.411-.443 1.012-1.092.87-1.044l.728-.728c.474-.585-.934.997-.95.886zm6.93-8.211l-.317.364a9.843 9.843 0 001.345-1.076 3.16 3.16 0 00-1.028.712zm-5.791 6.661l-1.012 1.028c0 .19.332-.348.585-.57-.126.158-.19.27 0 .095-.206.08.807-.838.427-.553zm-1.281.965l-.491.38-1.044 1.17a13.77 13.77 0 001.535-1.55zm.585-.76l.19-.206-1.582 1.409c.68-.57.585-.475 1.392-1.203zm5.237-7.91c-.427.443-.902 1.044-.459.522s.839-.997.459-.522zm-7.752 8.464c.301-.364-.411.158-.744.427.254-.127.174.206.744-.427zm-.871.553l.126-.094-.126.094zm-3.971.554l-.126.11.126-.11zm.285-.205c-.11.174.206 0 .681-.507a6.853 6.853 0 00-.965.712s-.206.332.284-.205zm-.19-.633c.224-.146.426-.321.602-.522.174-.206-.317.253-.602.522zm9.762-15.504c.19-.269 0-.127-.617.538.047.031.396-.38.617-.538zm-.807.617l.3-.316.459-.523-.759.839zm.649-1.202l.285-.254c-.11.067-.206.153-.285.254zm.142 0l.348-.333-.159.111s-.015-.032-.189.222zm-.11-.19l-.902 1.028c.522-.427.427-.554 1.487-1.582l-.585.554zm-.444.095c.253-.364-1.313 1.107-.222-.08-.727.475-1.835 1.962-2.42 2.247-.427.744 2.246-2.151 1.756-1.376.633-.696.585-.538.886-.791zm-1.866 1.978c.569-.57.553-.697.158-.317-.048.016-.791.917-.158.316zm1.091-1.71l.38-.49-.364.348-.016.143zm.063-.395l.68-.633a4.164 4.164 0 00-.68.633zm.586-1.06c.174-.269-1.361 1.25-.949.997v-.08c.291-.33.609-.637.949-.917zm-2.896 1.946s.222-.11.538-.443l-.379.253-.159.19zm-3.654 3.781c-.886.965.143 0-.111.348.127-.237.254-.364.111-.348zm4.873-5.205c.411-.38.19-.095.143 0 .522-.553.332-.474-.143 0zm-.428.206c.348-.411.522-.522.76-.807.237-.285.253-.475-.285 0s-1.424 1.582-1.898 1.977c.395-.253 2.135-1.961.87-.585l1.677-1.582c.189-.285-1.171 1.14-1.124.997zm-2.863 3.29l.49-.6c-.238.294-.521.55-.838.759-1.155 1.218.253-.111.348-.159zm1.709-3.005l-.364.19-.031.094.395-.284zm.316-.443l.332-.348-.696.57.364-.222zm.301-.507l-.048.064.348-.253-.3.19zm.031-.363l-.475.522c.158-.111-.348.506.301-.19-.253.158-.253.031.174-.332zm-13.083 12.197c.316-.295.617-.607.901-.933l-.854.838s.063-.11-.047.095zm1.17-1.502l-1.028.917c0 .221.696-.538.918-.633.269-.332-.443.332-.222 0l.332-.285zm-.648-2.105c.294-.333.617-.64.965-.918-.443.333-.38.127-.554.143-.364.411-1.108 1.044-.902.901l.459-.284-.427.411c-.412.554.727-.664.459-.253zm2.896-10.172c.3-.301.569-.586.822-.87-.295.269-.57.56-.822.87z" fill="#7B6255"/><path d="M195.46 160.07l.823 22.734 14.206-1.614 2.437-18.288-17.466-2.832zm62.933 65.781s-32.479-13.4-33.697-7.309c-1.218 6.091 3.243 11.359 3.243 11.359l6.914 24.806 26.799-.411 2.025-23.952-5.284-4.493zm-132.764-6.914l-7.309 19.95s32.891 21.104 36.134 15.425c3.243-5.68 4.461-38.159 4.461-38.159l-33.286 2.784zm1.218 143.348c-5.284-.411-21.515-22.338-23.951-28.476-2.437-6.139-5.284-21.912-.823-25.977 4.461-4.066 34.931-10.157 34.931-10.157l4.857 29.236s-6.486 30.865-7.705 30.865c-1.218 0-7.309 4.509-7.309 4.509zm104.747-45.088s-11.359 36.545-9.334 44.297c2.025 7.752 2.848 10.552 10.553 10.552 7.704 0 30.454-30.058 34.108-37.763 3.655-7.704-23.952-19.886-23.952-19.886l-11.375 2.8z" fill="#F2F1ED"/><path d="M278.976 46.512a81.905 81.905 0 00-40.247-21.437 4.049 4.049 0 00-4.889 2.769 4.002 4.002 0 002.769 4.888 74.362 74.362 0 0136.751 19.475c3.67 3.575 9.286-2.04 5.616-5.616v-.08zM225.234 32.48a323.152 323.152 0 00-36.26-2.342c-5.126 0-5.126 7.91 0 7.91 12.121.113 24.227.9 36.26 2.357a3.989 3.989 0 003.971-3.97 4.082 4.082 0 00-3.971-3.988v.032zm-48.727 8.653c-1.582-.459-3.306-.981-4.92-1.582l-2.31-.807-1.281-.506-.633-.27h.158a88.568 88.568 0 01-9.049-4.619 3.975 3.975 0 00-5.844 4.446 3.973 3.973 0 001.842 2.42 83.333 83.333 0 0019.87 8.527 3.986 3.986 0 002.167-7.61zm-29.22 8.1a70.671 70.671 0 00-20.139 4.05 4.084 4.084 0 00-2.785 4.904 4.033 4.033 0 004.905 2.769 66.456 66.456 0 019.207-2.627l2.326-.443 1.234-.19c.095 0 1.265-.173.348 0a70.145 70.145 0 014.952-.442 3.985 3.985 0 002.489-6.591 3.985 3.985 0 00-2.489-1.32l-.048-.11z" fill="#231F20"/><path d="M153.315 27.385a37.592 37.592 0 00-19.902-17.75c-9.144-3.75-20.235-4.636-29.394-.586a30.214 30.214 0 00-16.422 20.408A36.12 36.12 0 0093.34 57.84a47.92 47.92 0 0026.894 18.273c4.92 1.392 7.04-6.329 2.104-7.657C107.056 64.15 93.34 51.4 94.78 34.408a22.796 22.796 0 0110.473-17.007c6.913-4.224 15.82-3.56 23.303-1.091a30.281 30.281 0 0117.893 15.108 4.001 4.001 0 005.426 1.424 4.052 4.052 0 001.44-5.426v-.032zM291.569 43.87a26.063 26.063 0 0117.18-14.35c8.828-2.53 18.21-.854 26.563 2.564a74.082 74.082 0 0112.292 6.597 27.359 27.359 0 019.128 8.78c4.019 7.04 1.424 15.82-3.164 21.895-6.328 8.195-16.469 12.546-25.597 16.69a3.985 3.985 0 00-1.424 5.443 4.067 4.067 0 005.442 1.424c9.619-4.367 19.855-9.081 26.768-17.403 6.329-7.672 10.22-18.62 6.597-28.381-3.733-10.046-13.906-16.295-23.145-20.693-9.982-4.699-21.056-7.452-32.131-5.363-10.615 1.946-20.914 8.7-25.312 18.794a4.067 4.067 0 001.424 5.427 4.002 4.002 0 005.442-1.424h-.063z" fill="#231F20"/><path d="M295.603 63.281a108.08 108.08 0 0119.127 2.516 27.5 27.5 0 003.622.901l.459.238c-.538-.19-.68-.712-.459-1.582 0 0-.933.79-.553.506a38.37 38.37 0 01-7.309 4.477c-2.547 1.155-2.247 4.493-.807 6.328l21.674 26.42a4 4 0 005.632 0 4.08 4.08 0 000-5.616l-21.674-26.42-.807 6.233a26.576 26.576 0 0010.014-6.945 6.729 6.729 0 001.448-5.867 6.728 6.728 0 00-3.836-4.67c-3.702-1.834-8.417-2.325-12.467-2.958a123.112 123.112 0 00-14.064-1.44c-5.11-.22-5.094 7.721 0 7.91v-.03zM105.996 83.943a469.492 469.492 0 00-43.79 60.924 417.356 417.356 0 00-32.748 67.331 349.618 349.618 0 00-19.238 72.473 101.088 101.088 0 00-1.297 21.294 62.97 62.97 0 004.825 20.092 100.377 100.377 0 0019.159 29.33 108.297 108.297 0 0057.49 32.321c2.864.57 5.76.997 8.67 1.345a3.998 3.998 0 002.804-1.178 3.998 3.998 0 001.167-2.809 4.065 4.065 0 00-3.97-3.971 99.567 99.567 0 01-55.736-26.499 96.976 96.976 0 01-19.253-25.17 63.703 63.703 0 01-6.47-17.766 69.483 69.483 0 01-.317-20.25 265.92 265.92 0 017.024-36.387c2.927-11.659 6.455-23.161 10.505-34.472a400.254 400.254 0 0130.17-64.737 449.094 449.094 0 0140.847-59.31c1.915-2.342 3.829-4.746 5.775-6.961a4.084 4.084 0 000-5.632 4.004 4.004 0 00-5.617 0v.032z" fill="#231F20"/><path d="M105.237 380.795l9.239 4.287c.933.509 2.022.65 3.054.396a3.982 3.982 0 002.401-1.87c.522-.916.66-2.001.383-3.019a3.864 3.864 0 00-1.835-2.373l-9.223-4.287a4.325 4.325 0 00-3.069-.396 4.082 4.082 0 00-2.373 1.82 3.99 3.99 0 00-.396 3.069 3.896 3.896 0 001.819 2.373zm28.509-.459h16.105c1.202 0 1.218-.221 1.787.443.76.918 1.456 1.899 2.215 2.816 1.582 1.914 3.164 3.765 4.936 5.521 3.639 3.702 7.404 6.93 12.941 6.091a33.668 33.668 0 007.42-2.404l7.578-2.975a4.08 4.08 0 002.768-4.888 3.999 3.999 0 00-4.888-2.785l-7.214 2.848a28.482 28.482 0 01-7.056 2.436c-1.914.19-3.164-1.249-4.43-2.452a79.439 79.439 0 01-4.841-5.125c-1.455-1.677-2.705-3.702-4.303-5.221a9.376 9.376 0 00-6.913-2.262h-16.105c-5.11 0-5.126 7.91 0 7.91v.047zm59.611 7.167a84.376 84.376 0 0125.455 8.147 4.1 4.1 0 003.004.37 4.102 4.102 0 002.438-1.794 4.018 4.018 0 00-1.424-5.442 90.785 90.785 0 00-27.353-8.954 4.081 4.081 0 00-4.889 2.784c-.427 1.899.585 4.541 2.769 4.889zm142.525-271.635c19.38 43.284 28.808 90.84 31.514 138.048 1.234 21.5.759 43.49-5.316 64.31a93.216 93.216 0 01-92.992 68.565c-5.11-.19-5.11 7.752 0 7.91a101.246 101.246 0 0097.248-64.405c8.29-21.041 10.062-44.217 9.492-66.635a445.875 445.875 0 00-8.227-72.441 365.067 365.067 0 00-21.136-70.685 486.269 486.269 0 00-3.749-8.685 4.002 4.002 0 00-5.442-1.424 4.063 4.063 0 00-1.424 5.442h.032zm-79.244 268.993a78.958 78.958 0 00-26.009 3.164 3.98 3.98 0 00-.917 7.293 3.98 3.98 0 003.021.38 70.034 70.034 0 0123.905-2.88 4.001 4.001 0 003.971-3.986 4.053 4.053 0 00-3.971-3.971zm-31.15-19.412c-.87-12.213 1.851-24.142 5.189-35.817 1.186-4.177 2.357-8.907 5.553-12.055.98-.949 2.088-2.072 3.243-.949 1.582 1.471 1.392 4.224 1.471 6.154a4 4 0 005.47 3.625 4 4 0 001.934-1.616 15.677 15.677 0 013.006-4.082c.554-.458 1.977-1.36 2.689-.775.396.301.253 1.582.238 2.12a23.02 23.02 0 00.395 5.996 4.01 4.01 0 002.824 2.764 4.003 4.003 0 003.821-1.008 10.61 10.61 0 012.879-2.326 4.01 4.01 0 011.044-.268c.03.563.03 1.128 0 1.692a33.623 33.623 0 01-.696 3.766 42.735 42.735 0 01-6.882 14.697c-6.47 9.128-16.01 15.567-25.755 20.74-4.525 2.405-.507 9.271 4.002 6.866 12.656-6.739 24.759-15.82 31.752-28.603a49.013 49.013 0 004.129-10.014c.949-3.354 2.104-7.657 1.234-11.075a7.912 7.912 0 00-8.148-5.916c-3.733 0-6.644 2.499-9.16 4.983l6.645 1.756c-.649-2.626.221-5.363-.57-8.037a8.324 8.324 0 00-6.122-5.774c-6.597-1.582-11.074 3.575-14.238 8.654l7.419 1.993c-.142-3.385-.411-6.977-2.31-9.903a9.79 9.79 0 00-8.416-4.747c-6.961.333-11.185 7.784-13.321 13.511a134.364 134.364 0 00-5.505 20.566 86.556 86.556 0 00-1.756 23.082 4.052 4.052 0 003.971 3.971 4.006 4.006 0 003.971-3.971zm-99.874 1.392c7.198-.174 11.485-6.612 14.238-12.482a60.823 60.823 0 005.395-20.25 79.67 79.67 0 00-.95-20.566 95.319 95.319 0 00-2.199-9.92 17.64 17.64 0 00-4.271-8.368 8.191 8.191 0 00-11.074-.285c-3.164 2.673-3.528 6.676-5.616 10.014l5.442-1.424c-1.962-1.392-2.99-3.844-4.746-5.458a9.74 9.74 0 00-8.67-2.705 8.841 8.841 0 00-5.996 6.138c-.886 2.848-.158 5.838-.902 8.67l5.838-2.389a8.668 8.668 0 01-2.215-2.484 8.436 8.436 0 00-3.892-2.848 7.702 7.702 0 00-8.685 3.291c-3.78 5.237-2.848 13.368-1.693 19.317 1.282 6.581 4.335 12.102 7.642 17.829 2.879 4.968 5.79 11.074 10.409 14.713a4.114 4.114 0 005.617 0 4 4 0 000-5.632c-3.56-2.769-5.775-7.309-8.006-11.074-2.578-4.414-5.426-8.701-6.929-13.622a32.667 32.667 0 01-1.439-14.538c.252-.864.575-1.705.965-2.516.316-.965.363-.205.3-.253.222.19-.965.095-.886 0 .079-.095 1.772 2.088 1.899 2.231a9.487 9.487 0 002.974 2.499 4.028 4.028 0 003.499.226 4.023 4.023 0 002.354-2.599c.403-2.373.61-4.775.617-7.182 0-.538.222-1.028.301-1.582.079-.554.775-.57 0-.506 1.218-.095 2.468 1.803 3.069 2.562a22.721 22.721 0 004.746 4.747 4.02 4.02 0 005.442-1.424 26.75 26.75 0 002.184-5.221c.284-.759.822-2.642 1.756-2.879.11 0 0-.127 0-.127.237 0 .617.538.712.665a10.2 10.2 0 011.582 3.654 82.243 82.243 0 013.211 20.266 58.557 58.557 0 01-2.61 19.997 44.105 44.105 0 01-4.098 9.017c-1.139 1.867-2.832 4.493-5.268 4.541-5.11.126-5.126 8.084 0 7.91l-.047.047zm1.613-142.541a118.81 118.81 0 0121.88-3.164 22.037 22.037 0 014.746.19 12.16 12.16 0 011.978.506c.11 0 1.439.712 1.582.697.142-.016.253 0 0-.538.379-.95.3-1.092-.238-.427a6.631 6.631 0 00-1.218 1.012 20.339 20.339 0 01-4.192 2.389c-4.05 1.582-3.655 7.515 1.06 7.815 1.97-.068 3.931.299 5.742 1.076a2.658 2.658 0 011.298 1.297c.099.287.162.584.19.886.158-.348-.19.253-.143.237.048-.015 0-.095 0-.11-.902.189-1.708.348-2.642.458a11.584 11.584 0 00-6.597 2.611 3.983 3.983 0 001.756 6.644 6.314 6.314 0 012.363 1.012 6.306 6.306 0 011.766 1.868l.617-4.826c-1.677 2.152-3.781 5.253-6.613 5.917a9.493 9.493 0 01-5.236-.933 91.965 91.965 0 01-5.347-2.12 121.71 121.71 0 01-21.121-11.802 3.983 3.983 0 00-5.426 1.424 4.046 4.046 0 001.424 5.442 125.547 125.547 0 0024.695 13.305c4.288 1.74 9.002 3.702 13.669 2.183 4.082-1.329 7.009-4.509 9.492-7.784a4.17 4.17 0 00.633-4.746 14.528 14.528 0 00-8.891-6.518l1.756 6.645c.459-.396 1.93-.396 2.595-.475a13.228 13.228 0 005.031-1.344 8.075 8.075 0 004.05-7.816 10.432 10.432 0 00-4.841-7.91c-3.054-1.93-6.74-2.262-10.268-2.484l1.06 7.816a29.804 29.804 0 006.328-3.402c1.994-1.455 4.272-3.164 4.936-5.663 1.44-5.458-4.335-8.891-8.812-9.841a46.98 46.98 0 00-15.029.095 156.036 156.036 0 00-16.2 2.737c-4.999 1.123-2.879 8.796 2.104 7.673l.063-.032zm136.593 3.513a49.17 49.17 0 00-34.552-12.657c-3.069.127-7.577 0-9.84 2.405-2.262 2.405-1.835 6.217-.743 8.986 2.737 6.898 9.824 9.492 16.722 9.919l-1.044-7.799c-2.99.902-6.155.981-8.781 2.863a8.24 8.24 0 00-3.67 8.211 8.512 8.512 0 005.221 5.79c3.037 1.361 6.233 2.389 9.35 3.528l1.059-7.799c-4.556 0-9.571 1.012-11.517 5.695-1.756 4.224.744 8.464 4.604 10.378 3.86 1.914 8.701 2.183 13.036 2.073a110.127 110.127 0 0015.077-1.835 4.017 4.017 0 002.784-4.889 4.053 4.053 0 00-4.888-2.769c-6.186 1.029-12.657 2.136-18.874 1.298a11.793 11.793 0 01-3.164-.744c-.19 0-1.709-.917-1.456-1.107.254-.19.254.648.159.633-.095-.016 1.36-.807.648-.475a8.937 8.937 0 013.544-.316c4.746 0 5.126-6.329 1.06-7.8l-5.743-2.136a20.55 20.55 0 01-3.449-1.582l.301.507c.079.664-.332.395.158 0 .263-.191.543-.356.839-.491a49.243 49.243 0 015.758-1.376 3.993 3.993 0 002.196-1.662 3.993 3.993 0 00-.696-5.122 3.994 3.994 0 00-2.56-1.016 13.203 13.203 0 01-7.261-2.167 6.5 6.5 0 01-1.946-2.357 4.951 4.951 0 01-.38-1.187.823.823 0 010-.617c0-.981 0-.775-.3.649l-1.756 1.012a24.633 24.633 0 019.254-.743c3.042.135 6.058.624 8.986 1.455a40.365 40.365 0 0116.248 8.812c3.797 3.402 9.492-2.199 5.616-5.632v.064zm-66.462-87.566c.115 1.298.452 2.566.997 3.749a9.908 9.908 0 001.709 2.484 9.807 9.807 0 005.062 2.974c4.398.918 8.274-1.107 11.739-3.607a4.307 4.307 0 001.819-2.388 3.97 3.97 0 00-3.583-5.015 3.977 3.977 0 00-2.255.537 31.307 31.307 0 01-3.084 2.025l-.807.412c-.38.174-.269.126.332-.127l-.427.158a8.826 8.826 0 01-1.725.412l1.06-.143c-.526.05-1.056.05-1.582 0l1.06.143a8.965 8.965 0 01-.933-.19 1.12 1.12 0 00-.364-.127c.111 0 .981.459.348.127a9.298 9.298 0 01-.744-.427c-.522-.348.617.538.285.205l-.348-.316-.253-.332c-.49-.491.427.633.206.284-.222-.348-.317-.458-.459-.711-.332-.728-.142-.254 0 0 0 0 .332.727 0 0a6.41 6.41 0 01-.206-.918l.143 1.044v-.19a4.243 4.243 0 00-1.155-2.8 3.977 3.977 0 00-2.816-1.171 3.968 3.968 0 00-2.816 1.171 3.795 3.795 0 00-1.155 2.8l-.048-.063z" fill="#231F20"/><path d="M202.658 145.246l-1.044 5.601a10.442 10.442 0 01-.68 3.322c-.269.364-1.234.49-1.582.601l-2.689.759-5.395 1.488a877.256 877.256 0 01-21.69 5.663c-4.967 1.234-2.863 8.907 2.12 7.673a932.185 932.185 0 0024.379-6.407c3.528-.981 8.148-1.582 10.711-4.43a11.072 11.072 0 002.309-5.505l1.234-6.661a4.078 4.078 0 00-2.768-4.888 4.017 4.017 0 00-4.889 2.784h-.016z" fill="#231F20"/><path d="M202.501 163.06a204.66 204.66 0 0130.311 13.4c4.509 2.452 8.528-4.414 4.019-6.866a216.303 216.303 0 00-32.21-14.239 4.001 4.001 0 00-4.889 2.769 4.069 4.069 0 002.769 4.888v.048z" fill="#231F20"/><path d="M190.952 164.674v11.912c0 3.908-.712 9.018 3.322 11.296 2.009 1.123 4.54.807 6.755.807h5.917c2.278 0 4.572 0 6.202-1.899a12.132 12.132 0 002.135-6.106 78.112 78.112 0 001.282-13.827 3.995 3.995 0 00-.964-3.137 3.989 3.989 0 00-4.632-.998 3.979 3.979 0 00-2.17 2.462 3.995 3.995 0 00-.144 1.673c0 1.582 0 3.243-.159 4.857 0 .77-.063 1.545-.189 2.325 0 .38 0 .775-.127 1.155-.126.38 0 .396-.079.585-.079.19 0 .523 0 .095a99.707 99.707 0 01-.854 4.746l-.238 1.092c-.174.68 0 .111.238-.206a3.168 3.168 0 011.202-.791h.364-6.154c-1.582 0-3.402-.126-5.047 0h.237c.193.075.374.176.538.301.201.153.372.34.507.554 0 0 .221.743.158.332a3.021 3.021 0 00-.111-.396V164.61a3.992 3.992 0 00-.964-3.137 3.99 3.99 0 00-5.982 0 3.99 3.99 0 00-.964 3.137l-.079.064z" fill="#231F20"/><path d="M189.591 161.019a119.093 119.093 0 00-34.805 45.515 4.083 4.083 0 001.424 5.426 3.983 3.983 0 005.442-1.423 114.238 114.238 0 0133.65-43.902 4.001 4.001 0 000-5.616 4.085 4.085 0 00-5.632 0h-.079zm24.442 10.884a216.762 216.762 0 0116.77 42.098c1.376 4.92 9.049 2.832 7.657-2.104a225.698 225.698 0 00-17.561-43.996c-2.388-4.54-9.254-.522-6.866 4.002zm-65.559 90.714c2.515 16.485 17.402 27.259 32.716 31.055a59.98 59.98 0 0025.597.886 42.297 42.297 0 0019.681-9.682 53.217 53.217 0 0014.649-18.589 4.1 4.1 0 00-1.423-5.442 4.02 4.02 0 00-5.443 1.424 45.626 45.626 0 01-10.473 14.333A36.083 36.083 0 01208.449 286c-13.416 3.765-29.885 1.202-41.133-7.262a28.238 28.238 0 01-11.185-18.241 4.02 4.02 0 00-4.889-2.784 4.097 4.097 0 00-2.784 4.904h.016zm14.096-130.755l1.265.965-.806-.617a102.81 102.81 0 018.1 7.009 4.185 4.185 0 002.816 1.17 4.08 4.08 0 002.816-1.17 3.986 3.986 0 000-5.617 114.403 114.403 0 00-10.173-8.622 3.979 3.979 0 00-3.02-.411 3.971 3.971 0 00-2.422 1.851 3.974 3.974 0 00-.395 3.053l.395.95c.34.592.831 1.084 1.424 1.423v.016zm85.446.301a50.963 50.963 0 00-11.328 4.556 3.975 3.975 0 004.003 6.866 48.41 48.41 0 014.271-2.072l-.949.411a47.016 47.016 0 016.107-2.088 3.968 3.968 0 002.404-1.868 3.966 3.966 0 00.38-3.021 3.968 3.968 0 00-1.867-2.404 3.972 3.972 0 00-3.021-.38z" fill="#231F20"/></svg>