<svg width="365" height="385" fill="none" xmlns="http://www.w3.org/2000/svg"><path d="M140.53 14.996S105.884-6.662 94.509 2.546c-11.375 9.207-16.232 13.526-14.064 24.9 2.167 11.375 1.582 15.694 7.578 22.15 5.996 6.454 18.399 14.08 18.399 14.08s-62.791 78.547-71.999 107.229c-9.207 28.682-41.132 101.25-31.94 128.857 9.19 27.606 22.148 47.635 41.132 57.918 18.984 10.283 32.48 18.984 44.392 18.984 11.913 0 32.479-9.207 38.981-10.283 6.502-1.076 16.77 1.076 16.77 1.076s8.131 15.156 14.618 14.08c6.486-1.076 30.327-6.502 30.327-6.502l24.901 9.745s44.93-3.781 59.01-3.781c14.08 0 53.584-18.415 64.42-33.571 10.837-15.156 28.145-75.795 27.069-93.656-1.076-17.861-18.937-107.151-23.81-124-4.872-16.848-19.49-50.356-19.49-50.356s36.276-18.984 29.774-36.276c-6.503-17.291-27.069-30.311-40.595-29.773-13.527.537-30.866 8.67-31.942 13.02-1.075 4.35-8.669 11.897-8.669 11.897s-24.363-17.403-62.253-16.232c-37.89 1.17-38.443 8.654-47.635 8.654s-18.953-15.71-18.953-15.71z" fill="#F7CE7C"/></svg>