<svg width="230" height="227" fill="none" xmlns="http://www.w3.org/2000/svg"><path d="M115.539 91.471s-24.091 11.014-30.421 22.356c-6.33 11.341-.836 35.611-.836 35.611s-6.522 34.173 3.584 45.371 29.801 8.426 38.28.628c8.479-7.798 19.757-20.022 25.242-21.216 5.485-1.193 19.298-4.598 29.976-10.953 10.679-6.354 21.981-18.592 16.959-32.816-5.022-14.224-20.423-18.139-29.351-20.4-8.929-2.262-37.573-26.638-53.433-18.58zm40.932-39.387s-.377 23.64 3.555 30.247c3.932 6.607 23.194 12.357 25.418 10.351 2.225-2.006 5.821-11.038 2.8-19.568-3.022-8.53-21.122-23.925-24.771-23.126a53.135 53.135 0 00-7.002 2.096zM107.219 35.27s-4.743 15.21-2.02 19.785c2.722 4.575 10.383 18.608 20.145 14.18 9.762-4.43 17.276-6.838 14.752-15.664-2.524-8.825-13.918-23.39-18.483-24.115-4.564-.726-14.394 5.813-14.394 5.813zM61.898 53.973s-5.703 5.464-5.416 16.303c.287 10.838 7.501 29.96 17.453 28.17 9.953-1.79 18.922-13.322 18.139-20.422-.783-7.101-9.766-21.038-15.32-24.586-5.554-3.548-14.856.535-14.856.535zm-16.694 69.144s-6.15 17.43-1.319 29.015c4.832 11.584 14.948 19.334 21.228 14.907 6.28-4.427 5.077-28.498 1.855-36.218-3.222-7.72-11.005-12.709-14.767-13.247-3.763-.538-6.997 5.543-6.997 5.543z" fill="#253E87" fill-opacity=".12"/></svg>