<svg width="230" height="227" viewBox="0 0 230 227" fill="none" xmlns="http://www.w3.org/2000/svg">
<path d="M115.539 91.4712C115.539 91.4712 91.448 102.485 85.1176 113.827C78.7872 125.168 84.282 149.438 84.282 149.438C84.282 149.438 77.7597 183.611 87.8658 194.809C97.9719 206.007 117.667 203.235 126.146 195.437C134.625 187.639 145.903 175.415 151.388 174.221C156.873 173.028 170.686 169.623 181.364 163.268C192.043 156.914 203.345 144.676 198.323 130.452C193.301 116.228 177.9 112.313 168.972 110.052C160.043 107.79 131.399 83.4138 115.539 91.4712Z" fill="#253E87" fill-opacity="0.12"/>
<path d="M156.471 52.0841C156.471 52.0841 156.094 75.7232 160.026 82.3306C163.958 88.938 183.22 94.6881 185.444 92.6822C187.669 90.6764 191.265 81.6436 188.244 73.1143C185.222 64.5849 167.122 49.1888 163.473 49.988C161.094 50.5251 158.754 51.2255 156.471 52.0841Z" fill="#253E87" fill-opacity="0.12"/>
<path d="M107.219 35.2691C107.219 35.2691 102.476 50.4804 105.199 55.0552C107.921 59.63 115.582 73.6635 125.344 69.2347C135.106 64.8058 142.62 62.397 140.096 53.5714C137.572 44.7459 126.178 30.1819 121.613 29.4557C117.049 28.7296 107.219 35.2691 107.219 35.2691Z" fill="#253E87" fill-opacity="0.12"/>
<path d="M61.8984 53.9729C61.8984 53.9729 56.1949 59.4371 56.4818 70.2756C56.7688 81.1141 63.983 100.236 73.9352 98.4463C83.8875 96.6565 92.857 85.1244 92.074 78.0235C91.2909 70.9226 82.3076 56.9859 76.754 53.438C71.2003 49.89 61.8984 53.9729 61.8984 53.9729Z" fill="#253E87" fill-opacity="0.12"/>
<path d="M45.2042 123.117C45.2042 123.117 39.0539 140.547 43.8853 152.132C48.7167 163.716 58.8329 171.466 65.1133 167.039C71.3938 162.612 70.1899 138.541 66.9682 130.821C63.7464 123.101 55.9629 118.112 52.2006 117.574C48.4383 117.036 45.2042 123.117 45.2042 123.117Z" fill="#253E87" fill-opacity="0.12"/>
</svg>
